<svg xmlns="http://www.w3.org/2000/svg" viewBox="0 0 31.99 31"><defs><style>.cls-1{fill:#286efa;}</style></defs><title>Asset 1</title><g id="Layer_2" data-name="Layer 2"><g id="Layer_2-2" data-name="Layer 2"><circle class="cls-1" cx="5" cy="10" r="1"/><circle class="cls-1" cx="8" cy="10" r="1"/><circle class="cls-1" cx="11" cy="10" r="1"/><path class="cls-1" d="M29,0H17a3,3,0,0,0-3,3V6H4a4,4,0,0,0-4,4V30a1,1,0,0,0,1,1H25a1,1,0,0,0,1-1V20H24v9H2V14H14v7a1,1,0,0,0,1.71.71L19.41,18H29a3,3,0,0,0,3-3V3A3,3,0,0,0,29,0ZM2,12V10A2,2,0,0,1,4,8H14v4Zm28,3a1,1,0,0,1-1,1H19a1,1,0,0,0-.71.29L16,18.59V3a1,1,0,0,1,1-1H29a1,1,0,0,1,1,1Z"/></g></g></svg>