<svg xmlns="http://www.w3.org/2000/svg" viewBox="0 0 32 32"><defs><style>.cls-1{fill:#286efa;}</style></defs><title>Asset 1</title><g id="Layer_2" data-name="Layer 2"><g id="Layer_1-2" data-name="Layer 1"><path class="cls-1" d="M29,26a3,3,0,0,0-2.82,2H7.5A5.5,5.5,0,0,1,7,17v5a1,1,0,0,0,1,1H25V21H9V12.2l6.34,5.55a1,1,0,0,0,1.3,0L23,12.4V19h2V17a7.5,7.5,0,0,0-.5-15H5.82a3,3,0,1,0,0,2H24.5A5.5,5.5,0,0,1,25,15V10a1,1,0,0,0-1-1H8a1,1,0,0,0-1,1v5a7.5,7.5,0,0,0,.5,15H26.18A3,3,0,1,0,29,26ZM3,4A1,1,0,1,1,4,3,1,1,0,0,1,3,4ZM16,15.68,10.66,11H21.55ZM29,30a1,1,0,1,1,1-1A1,1,0,0,1,29,30Z"/></g></g></svg>