<svg xmlns="http://www.w3.org/2000/svg" viewBox="0 0 32 29"><defs><style>.cls-1{fill:#286efa;}</style></defs><title>Asset 1</title><g id="Layer_2" data-name="Layer 2"><g id="Layer_2-2" data-name="Layer 2"><ellipse class="cls-1" cx="20" cy="17.5" rx="1" ry="1.5"/><ellipse class="cls-1" cx="26" cy="17.5" rx="1" ry="1.5"/><path class="cls-1" d="M31.82,18.19a9,9,0,0,0-2.45-4.55,9,9,0,0,0-2.86-1.93l-.5-.18V1a1,1,0,0,0-1-1H1A1,1,0,0,0,0,1V18a1,1,0,0,0,1,1H14.06a8.86,8.86,0,0,0,.12,2.81,9,9,0,0,0,2.45,4.55l1.41-1.41a7,7,0,0,1-.86-1,7,7,0,0,1-1.05-2.5,7.06,7.06,0,0,1,0-2.82,6.9,6.9,0,0,1,.41-1.31,7,7,0,0,1,.64-1.19,7,7,0,0,1,1.89-1.89,7,7,0,0,1,2.5-1.05,7.11,7.11,0,0,1,2.82,0,7,7,0,0,1,2.5,1.05,7,7,0,0,1,1.89,1.89,7,7,0,0,1,1.05,2.5,7.06,7.06,0,0,1,0,2.82,6.9,6.9,0,0,1-.41,1.31,7,7,0,0,1-.64,1.19,7,7,0,0,1-1.89,1.89,7,7,0,0,1-1.19.65,6.88,6.88,0,0,1-1.31.41,7.09,7.09,0,0,1-2.82,0,6.9,6.9,0,0,1-1.31-.41l-.78,1.84a8.94,8.94,0,0,0,1.69.53,9.07,9.07,0,0,0,3.63,0,9,9,0,0,0,7-7,9.09,9.09,0,0,0,0-3.62ZM23.06,2,13,9.74,2.94,2Zm-1.87,9.18a9,9,0,0,0-4.55,2.45,9,9,0,0,0-1.93,2.86c-.07.16-.12.34-.18.5H2V3.8l10.39,8a1,1,0,0,0,1.22,0L24,3.8V8.18a3,3,0,0,1-2.52,3Z"/><path class="cls-1" d="M23,25a5,5,0,0,0,5-5H26a3,3,0,0,1-6,0H18A5,5,0,0,0,23,25Z"/></g></g></svg>