<svg xmlns="http://www.w3.org/2000/svg" xmlns:xlink="http://www.w3.org/1999/xlink" viewBox="0 0 1096.46 805.973">
  <defs>
    <style>
      .cls-1, .cls-13, .cls-8 {
        fill: #2795ac;
      }

      .cls-1, .cls-28, .cls-5, .cls-9 {
        opacity: 0.1;
      }

      .cls-2 {
        opacity: 0.9;
      }

      .cls-12, .cls-3 {
        fill: #3a3768;
      }

      .cls-4 {
        fill: #e6e8ec;
      }

      .cls-5, .cls-6 {
        fill: #44c5e9;
      }

      .cls-7 {
        fill: #e9ca59;
      }

      .cls-10 {
        fill: #ffd037;
      }

      .cls-11 {
        opacity: 0.2;
      }

      .cls-12, .cls-13 {
        opacity: 0.3;
      }

      .cls-14 {
        fill: #fff;
      }

      .cls-15 {
        fill: #514e7f;
      }

      .cls-16 {
        fill: #464353;
      }

      .cls-17 {
        fill: #a1616a;
      }

      .cls-18 {
        fill: #e36fa5;
      }

      .cls-19 {
        fill: #fbbebe;
      }

      .cls-20, .cls-24 {
        opacity: 0.05;
      }

      .cls-21 {
        fill: #3f3d56;
      }

      .cls-22 {
        fill: url(#linear-gradient);
      }

      .cls-23 {
        fill: #2d293d;
      }

      .cls-25 {
        fill: #ffcdd3;
      }

      .cls-26 {
        fill: #dce6f2;
      }

      .cls-27 {
        fill: #575988;
      }
    </style>
    <linearGradient id="linear-gradient" x1="0.501" y1="1" x2="0.501" gradientUnits="objectBoundingBox">
      <stop offset="0" stop-color="gray" stop-opacity="0.251"/>
      <stop offset="0.54" stop-color="gray" stop-opacity="0.122"/>
      <stop offset="1" stop-color="gray" stop-opacity="0.102"/>
    </linearGradient>
  </defs>
  <g id="Group_5" data-name="Group 5" transform="translate(-412 -137)">
    <g id="social_dashboard_k3pt" transform="translate(412 137.003)">
      <path id="Path_17" data-name="Path 17" class="cls-1" d="M693.59,160.42c-64.72-2.25-126.36-23.14-185.22-46S391.21,66.23,328,54.12C287.41,46.33,240.94,45.23,208.2,67c-31.5,21-41.68,57.15-47.15,90.72-4.12,25.27-6.54,51.85,4.74,75.5,7.84,16.42,21.74,30.22,31.36,46,33.47,54.72,9.81,122.2-26.45,175.63-17,25.06-36.75,49-49.88,75.66s-19.2,57.25-7.71,84.46c11.38,27,38.51,47.24,67.9,61.5,59.69,28.94,130,37.23,198.61,41.92,151.83,10.39,304.46,5.89,456.69,1.39,56.34-1.67,112.92-3.36,168.34-12.07,30.78-4.84,62.55-12.52,84.89-31,28.37-23.53,35.4-63.38,16.39-92.88-31.88-49.49-120-61.79-142.31-114.9-12.26-29.23.33-61.8,18.16-88.91,38.24-58.17,102.33-109.19,105.7-175.68,2.32-45.66-28.49-91.39-76.13-113-49.93-22.65-119.18-19.8-156,17.69C817.4,147.55,750.74,162.4,693.59,160.42Z" transform="translate(-51.77 -49.02)"/>
      <g id="Group_2" data-name="Group 2" class="cls-2">
        <rect id="Rectangle_1" data-name="Rectangle 1" class="cls-3" width="8.86" height="73.02" rx="2.29" transform="translate(708.33 248.78)"/>
        <rect id="Rectangle_2" data-name="Rectangle 2" class="cls-3" width="4.97" height="24.04" rx="2.29" transform="translate(413.89 191.58)"/>
        <rect id="Rectangle_3" data-name="Rectangle 3" class="cls-3" width="5.6" height="41.84" rx="2.29" transform="translate(413.71 235.59)"/>
        <rect id="Rectangle_4" data-name="Rectangle 4" class="cls-3" width="5.33" height="42.2" rx="2.29" transform="translate(413.8 292.07)"/>
        <rect id="Rectangle_5" data-name="Rectangle 5" class="cls-3" width="296.4" height="602.39" rx="38.99" transform="translate(416.71 112.14)"/>
        <rect id="Rectangle_6" data-name="Rectangle 6" class="cls-4" width="41.39" height="8.4" rx="3.87" transform="translate(536.31 130.12)"/>
        <circle id="Ellipse_1" data-name="Ellipse 1" class="cls-4" cx="4.77" cy="4.77" r="4.77" transform="translate(583.96 129.56)"/>
      </g>
      <ellipse id="Ellipse_2" data-name="Ellipse 2" class="cls-5" cx="199.97" cy="20.38" rx="199.97" ry="20.38" transform="translate(38.07 708.01)"/>
      <ellipse id="Ellipse_3" data-name="Ellipse 3" class="cls-5" cx="93.68" cy="9.55" rx="93.68" ry="9.55" transform="translate(589 786.87)"/>
      <ellipse id="Ellipse_4" data-name="Ellipse 4" class="cls-5" cx="93.68" cy="9.55" rx="93.68" ry="9.55" transform="translate(909.1 738.75)"/>
      <path id="Path_18" data-name="Path 18" class="cls-6" d="M723,176.84H689.1v4.09a19.38,19.38,0,0,1-19.38,19.38H561.54a19.38,19.38,0,0,1-19.38-19.38v-4.09H510.32a23.53,23.53,0,0,0-23.53,23.54V724.31a23.53,23.53,0,0,0,23.53,23.54H723a23.54,23.54,0,0,0,23.54-23.54V200.38A23.54,23.54,0,0,0,723,176.84Z" transform="translate(-51.77 -49.02)"/>
      <path id="Path_19" data-name="Path 19" class="cls-7" d="M867.49,134.73s-84.2-5.08-74.27,53.92c0,0-2,10.43,7.48,15.16,0,0,.15-4.37,8.63-2.89a38.439,38.439,0,0,0,9.15.44,19,19,0,0,0,11.19-4.61h0s23.66-9.78,32.87-48.46c0,0,6.81-8.44,6.54-10.61l-14.21,6.07s4.85,10.25,1,18.77c0,0-.46-18.4-3.19-18-.56.08-7.39,3.55-7.39,3.55s8.36,17.85,2,30.83c0,0,2.39-22-4.66-29.54l-10,5.84s9.76,18.44,3.15,33.49c0,0,1.69-23.08-5.25-32.07l-9.06,7.07s9.17,18.17,3.58,30.65c0,0-.74-26.86-5.55-28.89,0,0-7.93,7-9.14,9.86,0,0,6.28,13.2,2.39,20.16,0,0-2.39-17.9-4.35-18,0,0-7.9,11.86-8.72,20,0,0,.34-12.09,6.8-21.12,0,0-7.63,1.31-12.09,6.26,0,0,1.23-8.38,14-9.12,0,0,6.53-9,8.28-9.54,0,0-12.75-1.07-20.48,2.36,0,0,6.8-7.91,22.82-4.31l8.94-7.31s-16.78-2.29-23.9.24c0,0,8.2-7,26.32-1.9l9.74-5.82s-14.31-3.09-22.84-2c0,0,9-4.85,25.69.41l7-3.13s-10.49-2.06-13.56-2.39-3.23-1.17-3.23-1.17A36.35,36.35,0,0,1,853,141.19S867.74,135.66,867.49,134.73Z" transform="translate(-51.77 -49.02)"/>
      <path id="Path_20" data-name="Path 20" class="cls-6" d="M781.13,108.49s-38-2.29-33.56,24.37c0,0-.89,4.71,3.38,6.85,0,0,.07-2,3.9-1.31a17.51,17.51,0,0,0,4.13.2,8.62,8.62,0,0,0,5.06-2.08h0s10.69-4.42,14.85-21.9c0,0,3.08-3.81,3-4.79l-6.42,2.74s2.19,4.63.46,8.48c0,0-.2-8.31-1.44-8.12-.25,0-3.33,1.61-3.33,1.61s3.77,8.06.92,13.93c0,0,1.08-9.94-2.1-13.35l-4.52,2.64s4.41,8.33,1.42,15.13c0,0,.77-10.43-2.37-14.49l-4.1,3.2s4.15,8.21,1.62,13.85c0,0-.33-12.14-2.5-13.06,0,0-3.59,3.16-4.13,4.46,0,0,2.83,6,1.07,9.11,0,0-1.08-8.09-2-8.13,0,0-3.57,5.36-3.94,9a19.459,19.459,0,0,1,3.07-9.54,10.71,10.71,0,0,0-5.46,2.83s.55-3.79,6.34-4.12c0,0,2.95-4.07,3.74-4.32,0,0-5.76-.48-9.25,1.07,0,0,3.07-3.57,10.31-2l4-3.3s-7.58-1-10.8.11c0,0,3.71-3.16,11.89-.86l4.4-2.63s-6.46-1.39-10.31-.89c0,0,4.06-2.19,11.6.18l3.15-1.41s-4.73-.93-6.12-1.08-1.46-.53-1.46-.53a16.36,16.36,0,0,1,8.89,1S781.24,108.91,781.13,108.49Z" transform="translate(-51.77 -49.02)"/>
      <ellipse id="Ellipse_5" data-name="Ellipse 5" class="cls-6" cx="40.21" cy="6.8" rx="40.21" ry="6.8" transform="translate(0 671.77)"/>
      <path id="Path_21" data-name="Path 21" class="cls-8" d="M108.6,716.46a11.63,11.63,0,0,0,3.84-5.78c.49-2.3-.49-5-2.68-5.89-2.46-.95-5.09.76-7.08,2.48s-4.28,3.69-6.89,3.32A10.47,10.47,0,0,0,99,700.78a4,4,0,0,0-.9-2c-1.36-1.46-3.84-.83-5.48.32-5.2,3.66-6.65,10.72-6.67,17.08-.53-2.3-.09-4.69-.1-7s-.66-5-2.64-6.22a8,8,0,0,0-4-.95c-2.34-.08-4.94.15-6.54,1.86-2,2.12-1.47,5.69.26,8s4.35,3.8,6.76,5.42a14.919,14.919,0,0,1,4.84,4.61,4.411,4.411,0,0,1,.36.82H99.54a40.771,40.771,0,0,0,9.06-6.26Z" transform="translate(-51.77 -49.02)"/>
      <path id="Path_22" data-name="Path 22" class="cls-6" d="M882.34,632.54s8.65,11.32-4,28.4-23.07,31.5-18.85,42.15c0,0,19.08-31.72,34.61-32.17S899.42,651.62,882.34,632.54Z" transform="translate(-51.77 -49.02)"/>
      <path id="Path_23" data-name="Path 23" class="cls-9" d="M882.34,632.54a14.251,14.251,0,0,1,1.77,3.55c15.15,17.8,23.22,34.42,8.65,34.83-13.56.39-29.84,24.65-33.73,30.77a11.461,11.461,0,0,0,.46,1.4s19.08-31.72,34.61-32.17S899.42,651.62,882.34,632.54Z" transform="translate(-51.77 -49.02)"/>
      <path id="Path_24" data-name="Path 24" class="cls-10" d="M898.42,647c0,4-.45,7.21-1,7.21s-1-3.23-1-7.21.56-2.1,1.11-2.1S898.42,643,898.42,647Z" transform="translate(-51.77 -49.02)"/>
      <path id="Path_25" data-name="Path 25" class="cls-10" d="M903.94,651.72c-3.5,1.9-6.54,3.06-6.81,2.57s2.36-2.42,5.86-4.33,2.11-.51,2.38,0S907.44,649.81,903.94,651.72Z" transform="translate(-51.77 -49.02)"/>
      <path id="Path_26" data-name="Path 26" class="cls-8" d="M836.64,632.54s-8.65,11.32,4,28.4,23.07,31.5,18.86,42.15c0,0-19.08-31.72-34.61-32.17S819.56,651.62,836.64,632.54Z" transform="translate(-51.77 -49.02)"/>
      <path id="Path_27" data-name="Path 27" class="cls-9" d="M836.64,632.54a13.844,13.844,0,0,0-1.77,3.55c-15.15,17.8-23.22,34.42-8.66,34.83,13.57.39,29.84,24.65,33.74,30.77a13.5,13.5,0,0,1-.46,1.4s-19.08-31.72-34.61-32.17S819.56,651.62,836.64,632.54Z" transform="translate(-51.77 -49.02)"/>
      <path id="Path_28" data-name="Path 28" class="cls-10" d="M820.55,647c0,4,.45,7.21,1,7.21s1-3.23,1-7.21-.56-2.1-1.11-2.1S820.55,643,820.55,647Z" transform="translate(-51.77 -49.02)"/>
      <path id="Path_29" data-name="Path 29" class="cls-10" d="M815,651.72c3.49,1.9,6.54,3.06,6.8,2.57s-2.35-2.42-5.85-4.33-2.12-.51-2.38,0S811.54,649.81,815,651.72Z" transform="translate(-51.77 -49.02)"/>
      <path id="Path_30" data-name="Path 30" class="cls-7" d="M823.31,701.61s24.19-.75,31.48-5.94,37.21-11.39,39-3.06,36.35,41.41,9,41.63-63.46-4.26-70.73-8.69S823.31,701.61,823.31,701.61Z" transform="translate(-51.77 -49.02)"/>
      <path id="Path_31" data-name="Path 31" class="cls-11" d="M903.34,731.34c-27.31.22-63.46-4.26-70.73-8.69-5.55-3.37-7.75-15.48-8.49-21.07h-.81s1.53,19.51,8.81,23.94,43.42,8.91,70.73,8.69c7.88-.07,10.61-2.87,10.46-7C912.21,729.72,909.21,731.29,903.34,731.34Z" transform="translate(-51.77 -49.02)"/>
      <rect id="Rectangle_7" data-name="Rectangle 7" class="cls-12" width="78.03" height="78.03" transform="translate(584.53 487.87)"/>
      <rect id="Rectangle_8" data-name="Rectangle 8" class="cls-12" width="78.03" height="78.03" transform="translate(469.53 384.87)"/>
      <rect id="Rectangle_9" data-name="Rectangle 9" class="cls-13" width="78.03" height="78.03" transform="translate(477.03 589.11)"/>
      <rect id="Rectangle_10" data-name="Rectangle 10" class="cls-14" width="78.03" height="78.03" transform="translate(459.62 193.28)"/>
      <rect id="Rectangle_11" data-name="Rectangle 11" class="cls-14" width="78.03" height="78.03" transform="matrix(0.742, -0.671, 0.671, 0.742, 589.052, 512.098)"/>
      <rect id="Rectangle_12" data-name="Rectangle 12" class="cls-14" width="78.03" height="78.03" transform="translate(583.24 287.31)"/>
      <rect id="Rectangle_13" data-name="Rectangle 13" class="cls-14" width="78.03" height="78.03" transform="translate(484.6 374.31)"/>
      <path id="Path_32" data-name="Path 32" class="cls-6" d="M1023.61,781.61c4.54.59,9.25,1,13.6-.46.67-.21,1.44-.67,1.35-1.36a1.6,1.6,0,0,0-.31-.66,42.412,42.412,0,0,1-4.13-7.83.641.641,0,0,0-.25-.35.609.609,0,0,0-.44,0c-2,.52-3.74,1.82-5.74,2.37a8.2,8.2,0,0,1-3.12.24c-.9-.1-2.14-.85-2.95-.76C1022.12,775.77,1023.26,778.58,1023.61,781.61Z" transform="translate(-51.77 -49.02)"/>
      <path id="Path_33" data-name="Path 33" class="cls-6" d="M1109.54,774c3-2,6.1-4.22,7.87-7.39a1.211,1.211,0,0,0,.21-.63,1.3,1.3,0,0,0-.25-.62,25.621,25.621,0,0,0-6.39-6.9,18.887,18.887,0,0,0-3.57,3.29c-.75.79-2.83,2.09-2.85,3.27,0,.71.79,1.48,1.16,2,.5.74,1,1.5,1.43,2.26C1107.38,769.74,1109.76,773.88,1109.54,774Z" transform="translate(-51.77 -49.02)"/>
      <path id="Path_34" data-name="Path 34" class="cls-15" d="M1041.41,790.79a3,3,0,0,1-.54,2,2.67,2.67,0,0,1-1.15.67c-6.36,2.27-13.68-.57-20,1.68-1.31.46-2.54,1.12-3.85,1.56a20.847,20.847,0,0,1-4.77.85c-2.25.22-4.5.35-6.75.41a16.327,16.327,0,0,1-5.08-.44,6.15,6.15,0,0,1-3.9-3.09,3,3,0,0,1-.19-2.2,2.489,2.489,0,0,1,.41-.71,6.089,6.089,0,0,1,1.5-1.21l2.34-1.51a15.633,15.633,0,0,1,3.54-1.88c.92-.3,1.91-.43,2.84-.7,3.29-1,5.79-3.57,8.12-6.07l3.18-3.39a3.111,3.111,0,0,1,1.1-.88,3,3,0,0,1,1.36-.14,18.37,18.37,0,0,1,8.67,2.92,12.513,12.513,0,0,0,2.14,1.26,7.64,7.64,0,0,0,6-.75c.82-.43.64-.7,1-1.47s1.18-1.27,1.9-.56a2.09,2.09,0,0,1,.45.86c.7,2.27.43,4.7.43,7.07a3.137,3.137,0,0,0,.14,1.1,6.69,6.69,0,0,0,.62,1,1.572,1.572,0,0,1,.13.26,6.939,6.939,0,0,1,.36,3.36Z" transform="translate(-51.77 -49.02)"/>
      <path id="Path_35" data-name="Path 35" class="cls-16" d="M1041.41,790.79a3,3,0,0,1-.54,2,2.67,2.67,0,0,1-1.15.67c-6.36,2.27-13.68-.57-20,1.68-1.31.46-2.54,1.12-3.85,1.56a20.847,20.847,0,0,1-4.77.85c-2.25.22-4.5.35-6.75.41a16.327,16.327,0,0,1-5.08-.44,6.15,6.15,0,0,1-3.9-3.09,3,3,0,0,1-.19-2.2,2.489,2.489,0,0,1,.41-.71c.38.78.65,1.8.88,2.17a4.44,4.44,0,0,0,3,2.15,7.611,7.611,0,0,0,2.71-.35c5.76-1.43,11.88-1.45,17.4-3.61a41.567,41.567,0,0,1,5.7-2.19,45.293,45.293,0,0,1,6.16-.5c3.25-.26,6.39-1.24,9.6-1.75a6.94,6.94,0,0,1,.37,3.35Z" transform="translate(-51.77 -49.02)"/>
      <path id="Path_36" data-name="Path 36" class="cls-15" d="M1124.06,773.61c-.3,2.41-1.83,4.49-3.51,6.25a40.08,40.08,0,0,0-4.9,5.37c-1.66,2.52-2.39,5.63-4.53,7.76a12.271,12.271,0,0,1-2.72,2,18.8,18.8,0,0,1-3.53,1.62c-3.19,1-6.63.79-10,.55a8.89,8.89,0,0,1-3.16-.62,9.182,9.182,0,0,1-1.34-.81,6.36,6.36,0,0,1-2-2.07,2.079,2.079,0,0,1-.19-1.49,3.4,3.4,0,0,1,1-1.46,22.6,22.6,0,0,1,2.41-2.17,14.306,14.306,0,0,0,3.14-2.76,9,9,0,0,0,1.21-2.76,24.736,24.736,0,0,0,.88-5.25,16.533,16.533,0,0,1,.37-3.51c.51-1.8,1.85-3.43,1.69-5.3a1.359,1.359,0,0,1,.07-.8,1.25,1.25,0,0,1,.63-.39,11.4,11.4,0,0,1,3.28-.75,3.78,3.78,0,0,1,3,1.19c.47.56.77,1.34,1.46,1.59a2.42,2.42,0,0,0,1,0c1.68-.17,3.47-.38,4.76-1.47a6,6,0,0,0,2-4.37c0-.62-.28-1.27.67-1.4.73-.1,1.3.66,1.67,1.16a16.32,16.32,0,0,1,3.21,5.85,1.621,1.621,0,0,1,.61-.12,2.61,2.61,0,0,1,2.18,1.12,4.32,4.32,0,0,1,.64,3.04Z" transform="translate(-51.77 -49.02)"/>
      <path id="Path_37" data-name="Path 37" class="cls-16" d="M1124.06,773.61c-.3,2.41-1.83,4.49-3.51,6.25a40.08,40.08,0,0,0-4.9,5.37c-1.66,2.52-2.39,5.63-4.53,7.76a12.271,12.271,0,0,1-2.72,2,18.8,18.8,0,0,1-3.53,1.62c-3.19,1-6.63.79-10,.55a8.89,8.89,0,0,1-3.16-.62,9.182,9.182,0,0,1-1.34-.81,6.36,6.36,0,0,1-2-2.07,4.872,4.872,0,0,1,2.06-.49c1.49.08,2.57,1.48,4,1.91,2,.61,4-.82,6.09-1.31,1.34-.31,2.76-.22,4.07-.65a10.049,10.049,0,0,0,3-1.82,15.231,15.231,0,0,0,3.21-3.1,19.76,19.76,0,0,0,1.89-3.76,53.7,53.7,0,0,1,3.81-7.29,4.837,4.837,0,0,1,.78-1c.31-.29.7-.5,1-.76,1.37-1,1.94-2.77,2.42-4.41a7.388,7.388,0,0,1,.54-1.47,2.61,2.61,0,0,1,2.18,1.12A4.32,4.32,0,0,1,1124.06,773.61Z" transform="translate(-51.77 -49.02)"/>
      <path id="Path_38" data-name="Path 38" class="cls-17" d="M980.4,560a14.52,14.52,0,0,1,4.08,4.77c1,1.88,6.49,16.48,6.17,18.57,1.8-1.82,8.94-2.12,10.73-3.93.76-.76,4.87-4.56,5.48-5.44s5.19-2.77,5.69-3.67c1.87-3.35-13.26-16-11.33-19.36a.82.82,0,0,0,.16-.52.8.8,0,0,0-.25-.4,24.076,24.076,0,0,0-4.38-3,7,7,0,0,1-3.34-4,14.37,14.37,0,0,0-3.87,2.62q-4.15,3.55-8.18,7.28c-1.06,1-3.08,2.27-3.57,3.66S979.39,559.18,980.4,560Z" transform="translate(-51.77 -49.02)"/>
      <path id="Path_39" data-name="Path 39" class="cls-15" d="M1004.89,554.61a43.832,43.832,0,0,0-6.48,5.3c-1.88,1.85-3.66,4-4.13,6.61-.19,1-.16,2.06-.32,3.09-.67,4.48-4.56,7.77-6.27,12a20.523,20.523,0,0,0-1.1,4,47.148,47.148,0,0,0-.78,7.86c0,2.56,2.46,4.32,3.38,6.71a40.7,40.7,0,0,1,1.63,7.27,88.569,88.569,0,0,0,4.09,13.5c3.38,9.33,14.33,35.13,17.71,44.47,10.35-2.6,37.91-8.57,47.07-14,3.06-1.82-21.2-22.38-17.93-23.8a1.65,1.65,0,0,0,.91-.69,1.58,1.58,0,0,0,0-1c-3.26-14.29-13.49-26-18.12-40-1.61-4.83-4.5-8.95-6.7-13.55-2-4.16-3.05-8.75-5.42-12.7a8.492,8.492,0,0,0-1.73-2.17,10.608,10.608,0,0,0-1.92-1.15C1007.47,555.66,1006.21,555.27,1004.89,554.61Z" transform="translate(-51.77 -49.02)"/>
      <circle id="Ellipse_6" data-name="Ellipse 6" class="cls-17" cx="16.2" cy="16.2" r="16.2" transform="translate(912.98 476.95)"/>
      <path id="Path_40" data-name="Path 40" class="cls-16" d="M997.43,549.78a5.43,5.43,0,0,1,6.09-.87,3,3,0,0,1,1.81,2.92l8,.12a16.738,16.738,0,0,1,3.81.35,5.54,5.54,0,0,1,3.18,2c.1.13.21.28.37.31a.64.64,0,0,0,.37-.13,7.05,7.05,0,0,1,4-.72c4.34.28,8.36,2.46,11.76,5.17a3.809,3.809,0,0,1,1.4,1.71c.28.91,0,2.08.66,2.7,0,7.55,2.59,14.58,4.32,21.93.3,1.31,1.56,2.46,2.43,3.49a14,14,0,0,1,2.6,3.88c1.46,3.81-.56,8.28.87,12.11a19.5,19.5,0,0,0,2.76,4.35,11.21,11.21,0,0,1,2.35,5.62c.06.92-.06,1.84,0,2.77a16.88,16.88,0,0,0,.66,3.64c.58,2.21,1.2,4.42,1.84,6.62,1,3.56,2.4,7.41,5.59,9.31-7.71,1.31-15.83,2.58-23.18-.09a12,12,0,0,1-2.89-1.45c-2.65-1.89-3.93-5.13-5.07-8.18-1.28-3.43-2.58-6.91-2.84-10.56a12.083,12.083,0,0,0-.48-3.45c-.75-2-2.73-3.19-4.55-4.29a21.893,21.893,0,0,1-5.47-4.26,8.5,8.5,0,0,1-2.22-6.4c.14-1.13.58-2.22.63-3.36a2.69,2.69,0,0,0-1.56-2.77c-5.61-1.7-8.29-8.34-9.54-14.07a44.894,44.894,0,0,1-.72-9l-.07-5.79a7.68,7.68,0,0,1-2.52-5.54,6.217,6.217,0,0,0,0-1.83,5.129,5.129,0,0,0-1.28-2,16.9,16.9,0,0,1-3.11-4.24Z" transform="translate(-51.77 -49.02)"/>
      <path id="Path_41" data-name="Path 41" class="cls-16" d="M980.17,568.31c-.18,1.81.23,3.66-.18,5.44-.16.68-.43,1.33-.63,2a11.8,11.8,0,0,0,.75,7.62,42.341,42.341,0,0,0,3.89,6.75,10.283,10.283,0,0,1,1.25,2.33,12.071,12.071,0,0,1,.48,2.67,81.309,81.309,0,0,0,1.91,10.74c.76,3.08,1.75,6.19,3.78,8.63a2.62,2.62,0,0,0,1.56,1.06,2.82,2.82,0,0,0,1.33-.28l4.14-1.57a2.89,2.89,0,0,0,1-.52,2.51,2.51,0,0,0,.58-1.62c.29-3.34-.71-6.65-1.82-9.81-3.36-9.54-7.82-18.73-10-28.6-.61-2.76-.93-7-2.94-9.15-.83-.9-.55-.52-1.54,0a12.554,12.554,0,0,0-1.45.77,4.75,4.75,0,0,0-2.11,3.54Z" transform="translate(-51.77 -49.02)"/>
      <path id="Path_42" data-name="Path 42" class="cls-16" d="M1059.24,627.68" transform="translate(-51.77 -49.02)"/>
      <path id="Path_43" data-name="Path 43" class="cls-18" d="M992.65,586.41q1.65,8.73,3.37,17.47l16.08-4.22c.13-1.68-.77-3.24-1.39-4.81-1.47-3.68-1.5-7.77-2.69-11.55-.9-2.88-2.46-5.53-3.3-8.43-.49-1.68-.73-3.44-1.21-5.13a39.187,39.187,0,0,0-1.89-4.89,31.158,31.158,0,0,0-3.51-6.51c-2.06.77-4.25,1.66-5.42,3.51a7.46,7.46,0,0,0-1,3.46c-.28,3.62,1,7.25.59,10.83a32,32,0,0,0,.37,10.27Z" transform="translate(-51.77 -49.02)"/>
      <path id="Path_44" data-name="Path 44" class="cls-16" d="M1012.37,664c.9,3.44-.41,7-1.47,10.42a80.914,80.914,0,0,0-3.28,15.69,13,13,0,0,1-.81,4,37.385,37.385,0,0,1-1.95,3.2c-1.62,2.86-1.58,6.36-1.23,9.63.23,2.16.58,4.31,1,6.44.53,2.59,1.18,5.31.42,7.84,1.27-.28,2.14,1.36,2.09,2.67s-.51,2.71.11,3.86c1.58.57,1.6,2.74,1.55,4.41a37.188,37.188,0,0,0,1.09,8.64q3.58,17.19,7.6,34.29c5.79,1.8,12.55,3.67,18.07,1.18a3.55,3.55,0,0,0,2.29-2.3,4.141,4.141,0,0,0-.22-1.77l-2.62-9.52a17.53,17.53,0,0,1-.94-7c.26-1.77,1-3.67.16-5.22a15.062,15.062,0,0,0-1.1-1.46c-1.38-2-.66-4.69-.54-7.13a5.583,5.583,0,0,0-.12-1.63,8.562,8.562,0,0,0-.77-1.79,27.33,27.33,0,0,1-3-13.6,3.341,3.341,0,0,0-.24-1.78,4.08,4.08,0,0,1-.44-.72,1.93,1.93,0,0,1,.14-1.31,11.383,11.383,0,0,1-2.11-2,3,3,0,0,0,.5-4.62,1.54,1.54,0,0,0,.74-2.65c-.34-.24-.78-.34-1-.68-.37-.5-.07-1.21.23-1.75l1.6-2.89c1.19-2.14,1.46-4.79,2.74-6.88a51.622,51.622,0,0,0,4.22-9.63l4.56-12.7,3.1,2.69a9.71,9.71,0,0,1,2.55,2.91,12.275,12.275,0,0,1,.82,3.48c1.14,6.9,5.49,12.88,7.1,19.69a13.27,13.27,0,0,0,1.46,4.4,9.525,9.525,0,0,1,.84,1.26,6.64,6.64,0,0,1,.35,2.09,9.74,9.74,0,0,0,4.11,7c1.52,1,3.45,1.77,4.25,3.43a6.769,6.769,0,0,0,.7,1.46c.74.89,2.34,1,2.66,2.11.17.63-.16,1.37.2,1.92a1.75,1.75,0,0,0,.75.56l4.47,2.24c5,2.49,7.52,8.2,11.21,12.39a25.735,25.735,0,0,1,3.35,4.44c1.59,2.84,2.33,6.41,5,8.24a7.768,7.768,0,0,1,1.94,1.44c.85,1.11.54,2.67.61,4.07s1.15,3.06,2.48,2.64a9.65,9.65,0,0,0,0,5.17,26.06,26.06,0,0,0,15.8-6.4c1.3-1.14,2.56-2.59,2.57-4.31a1.67,1.67,0,0,0-.19-.86,2.339,2.339,0,0,0-1-.76c-4.17-2.26-5.43-7.5-7.52-11.76-1.85-3.75-4.57-7-6.88-10.48-5-7.5-8.34-16.57-15.85-21.53-1.65-1.09-3.57-2.06-4.39-3.86a30.8,30.8,0,0,1-.88-3.2,2.69,2.69,0,0,0-2.35-2,14.269,14.269,0,0,0,.54-5,6.219,6.219,0,0,0-.25-2.15,10.157,10.157,0,0,0-1.1-2.12,20.551,20.551,0,0,1-2.83-11c.06-2,.41-4-.19-5.91-.3-1-.82-1.83-1.19-2.76a17.212,17.212,0,0,1-.86-5.15l-.41-6.59a31.543,31.543,0,0,0-.85-6.51c-1.39-5.11-2.72-26.52-7.43-28.93s-12.75,14.06-18,14.39a24,24,0,0,0-6.88,1.32c-3.51,1.32-6.46,3.78-9.33,6.19l-9.72,8.16a35.427,35.427,0,0,1-6.03,4.35Z" transform="translate(-51.77 -49.02)"/>
      <path id="Path_45" data-name="Path 45" class="cls-16" d="M965.74,524.18a12.22,12.22,0,0,1,9.43-4.6,22,22,0,0,1,10.42,2.62,13.433,13.433,0,0,0,3,1.25c1.72.35,3.62-.12,5.17.7,2.06,1.09,2.45,3.87,2.27,6.19s-.61,4.86.62,6.85a19.005,19.005,0,0,1,1.19,1.78,5.94,5.94,0,0,1-.11,3.81,30.6,30.6,0,0,1-2-2.51c-.72-.79-1.95-1.33-2.83-.74s-.88,1.68-.92,2.65-.3,2.14-1.22,2.46a2,2,0,0,1-2-.8c-1.57-1.92-.94-5-2.49-6.92-.89-1.1-2.36-1.63-3.18-2.78-.64-.9-.8-2.07-1.36-3s-1.87-1.69-2.75-1a3.738,3.738,0,0,0-.73,1,4.21,4.21,0,0,1-5,1.5,8.77,8.77,0,0,0-2.17-.93,2.67,2.67,0,0,0-2.47,1.34,5.32,5.32,0,0,0-.65,2.86c0,1.35.24,2.83-.54,3.93a4.059,4.059,0,0,1-1.16,1c-1.15.73-2.72,1.22-3.8.39a2.86,2.86,0,0,1-.85-2.66,21.865,21.865,0,0,1,.81-2.81c.6-2.12-.18-4.51.48-6.51A20.489,20.489,0,0,1,965.74,524.18Z" transform="translate(-51.77 -49.02)"/>
      <path id="Path_46" data-name="Path 46" class="cls-18" d="M974.42,572.51a2.5,2.5,0,0,0,.15,1.49,2.42,2.42,0,0,0,.81.78,16.78,16.78,0,0,0,7.64,2.47,2.3,2.3,0,0,1,1,.27,1.89,1.89,0,0,1,.45,2.13,5.67,5.67,0,0,0-.48,2.26c.2,1.43,1.89,2.08,3.33,2.26a7.721,7.721,0,0,0,5.79-1.12,8.931,8.931,0,0,0,2.39-3.59c3.93-9,5.31-19,9.29-28a5.691,5.691,0,0,0,.6-1.87,1.86,1.86,0,0,0-.74-1.73c-.74-.46-1.89-.2-2.39-.91-.25-.37-.22-.86-.44-1.24-.46-.82-1.66-.72-2.49-1.16-.64-.35-1.09-1-1.8-1.19a2.3,2.3,0,0,0-1.88.81c-2.33,2.18-3.56,5.27-4.86,8.19a97.274,97.274,0,0,1-7,12.91c.31-.48-1.48-4.13-2.18-4.27-1.22-.25-2.8,1.9-3.46,2.71a17.16,17.16,0,0,0-3.73,8.8Z" transform="translate(-51.77 -49.02)"/>
      <rect id="Rectangle_14" data-name="Rectangle 14" class="cls-14" width="78.03" height="78.03" transform="translate(930.83 536.29)"/>
      <path id="Path_47" data-name="Path 47" class="cls-17" d="M1060,628.29a31.524,31.524,0,0,0-3.7,3.88,7.729,7.729,0,0,0-1.7,5,2.571,2.571,0,0,0,.48,1.46,1.25,1.25,0,0,0,1.39.43,2,2,0,0,0,.68-.61,32,32,0,0,1,2.3-2.5c.3-.29.68-.6,1.08-.49a1.139,1.139,0,0,1,.47.31,3.18,3.18,0,0,1,1,1.51,3.579,3.579,0,0,1-1.06,2.91,7.541,7.541,0,0,0-1.79,2.65,1.13,1.13,0,0,0,0,.85,1.389,1.389,0,0,0,.53.46,7.72,7.72,0,0,0,6.47.42c1.39-.55,2.59-1.51,4-2a9.614,9.614,0,0,0,1.77-.66,3.64,3.64,0,0,0,1.57-2.34,10,10,0,0,0,.11-2.89,33,33,0,0,0-2.41-10.9,1.3,1.3,0,0,0-.39-.58,1.371,1.371,0,0,0-.66-.19c-1.75-.18-4.63-1.08-6.32-.43a4.321,4.321,0,0,0-1.49,1.33C1061.94,626.26,1060,627.83,1060,628.29Z" transform="translate(-51.77 -49.02)"/>
      <path id="Path_48" data-name="Path 48" class="cls-16" d="M1059.4,626.74c0-1.68-2.08-5.71,1.21-6,0-1.78-2.53-2.9-2.07-4.78.16-.64.67-1.15.75-1.79.21-1.83-3.09-2.82-2.55-4.58.2-.67.93-1.08,1.09-1.76.37-1.58-2.46-2.29-2.51-3.91,0-.55.3-1.07.28-1.61,0-.69-.6-1.21-.93-1.8-.85-1.53-.44-3.9-2-4.68,1,.08,1.39-1.45.95-2.39s-1.3-1.75-1.3-2.79a4.434,4.434,0,0,0,0-1.15c-.29-1-1.93-1.07-2.2-2.07a10.638,10.638,0,0,1,0-1.13c-.1-.78-.9-1.26-1.65-1.49a6.56,6.56,0,0,1-2.2-.78c-.48-.37-1-1-1.55-.65-.19.11-.29.33-.44.5-.61.71-1.78.4-2.56-.13-2.29-1.55-3.42-4.34-3.92-7.06s-.47-5.53-1.07-8.23A18.856,18.856,0,0,0,1036,566a12.738,12.738,0,0,1-1.16-2.46c-.12-1.57,3.14-.5,4.38-.34a19.439,19.439,0,0,1,3.56.67,37.66,37.66,0,0,1,3.63,1.59c5,2.19,10.92,2.46,14.9,6.13,1.31,1.21,2.41,2.79,4.1,3.33a20.921,20.921,0,0,1,2.3.6c1.89.89,2.18,3.39,3.21,5.2a11.123,11.123,0,0,1,.85,1.5,5.912,5.912,0,0,1,.27,1.92l.14,4.75c.23,8,.47,15.93-.38,23.84-.28,2.6-.67,5.29.09,7.8.2.68.49,1.33.66,2a13.614,13.614,0,0,1,.26,2.47l.11,3.07a.741.741,0,0,1-.98.91c-4.29-.38-8.61-2.8-12.66-1.34" transform="translate(-51.77 -49.02)"/>
      <path id="Path_49" data-name="Path 49" class="cls-17" d="M979.66,614.21a1.32,1.32,0,0,0-.48.4,3.41,3.41,0,0,0,0,4.06,1.37,1.37,0,0,1,.24.4,1.18,1.18,0,0,1-.12.68,2.25,2.25,0,0,0,.31,2.52c.31.26.73.39.93.73.35.58-.14,1.32-.06,2,.1.89,1.15,1.33,2,1.44a2.13,2.13,0,0,0,1.95-.52,1.62,1.62,0,0,0,0-1.77,4.74,4.74,0,0,0-1.32-1.32A2,2,0,0,0,985,621a2.84,2.84,0,0,0-1.14-2.49c-.18-.15-.4-.3-.45-.54s.19-.57.41-.8c1-1,1.77-3.45-.11-4a4.629,4.629,0,0,0-2,.09c-.48.15-.48.44-.85.64S980.08,614,979.66,614.21Z" transform="translate(-51.77 -49.02)"/>
      <path id="Path_50" data-name="Path 50" class="cls-9" d="M999.31,545.14a3.3,3.3,0,0,0-2.54,1.28,7.309,7.309,0,0,0-1.06,3.4,29.808,29.808,0,0,1-4,10.86" transform="translate(-51.77 -49.02)"/>
      <path id="Path_51" data-name="Path 51" class="cls-9" d="M1002.81,547.88a3.88,3.88,0,0,0-3.32,2,11.1,11.1,0,0,0-.84,3.39,18.422,18.422,0,0,1-3.33,7.11" transform="translate(-51.77 -49.02)"/>
      <path id="Path_52" data-name="Path 52" class="cls-19" d="M357.66,611.59c.58,6.32-4.19,12.44-2.8,18.62.3,1.32.87,2.57,1.08,3.9.57,3.67-1.62,7.15-3.71,10.22l-17.94,26.34a17.067,17.067,0,0,1-2.57,3.17c-3.44,3-8.58,2.73-13.09,3.64a22.449,22.449,0,0,0-8.76,3.88.57.57,0,0,0-.12.79,7.55,7.55,0,0,0,6.52,3.06c.47.62,0,1.53-.65,2-1,.67-2.29.84-2.48,2.48a2.68,2.68,0,0,0,.33,1.64,5.07,5.07,0,0,0,3.14,2.18c6.21,1.9,12.93-1.43,17.57-6s8-10.27,12.56-14.9c2.53-2.55,5.4-4.75,8-7.23,5.2-4.94,9.23-11,13.13-17a18.87,18.87,0,0,0,2.84-5.78c.48-2.06.26-4.23.82-6.27.72-2.66,2.68-4.79,4.3-7,3.19-4.38,5.31-9.75,4.89-15.15s-3.76-10.74-8.86-12.57a7.93,7.93,0,0,0-5-.31c-2.09.65-3.63,2.38-5.06,4l-3.4,3.94a9.081,9.081,0,0,0-2,3,3.15,3.15,0,0,0,.7,3.35" transform="translate(-51.77 -49.02)"/>
      <path id="Path_53" data-name="Path 53" class="cls-20" d="M357.66,611.59c.58,6.32-4.19,12.44-2.8,18.62.3,1.32.87,2.57,1.08,3.9.57,3.67-1.62,7.15-3.71,10.22l-17.94,26.34a17.067,17.067,0,0,1-2.57,3.17c-3.44,3-8.58,2.73-13.09,3.64a22.449,22.449,0,0,0-8.76,3.88.57.57,0,0,0-.12.79,7.55,7.55,0,0,0,6.52,3.06c.47.62,0,1.53-.65,2-1,.67-2.29.84-2.48,2.48a2.68,2.68,0,0,0,.33,1.64,5.07,5.07,0,0,0,3.14,2.18c6.21,1.9,12.93-1.43,17.57-6s8-10.27,12.56-14.9c2.53-2.55,5.4-4.75,8-7.23,5.2-4.94,9.23-11,13.13-17a18.87,18.87,0,0,0,2.84-5.78c.48-2.06.26-4.23.82-6.27.72-2.66,2.68-4.79,4.3-7,3.19-4.38,5.31-9.75,4.89-15.15s-3.76-10.74-8.86-12.57a7.93,7.93,0,0,0-5-.31c-2.09.65-3.63,2.38-5.06,4l-3.4,3.94a9.081,9.081,0,0,0-2,3,3.15,3.15,0,0,0,.7,3.35" transform="translate(-51.77 -49.02)"/>
      <path id="Path_54" data-name="Path 54" class="cls-17" d="M221,638.44c1,3.16,2,6.32,3.21,9.4A79.542,79.542,0,0,0,232.52,663a109.208,109.208,0,0,0,6.87,9c3.06,3.61,6.48,7.24,7.56,11.85.63,2.66.42,5.45.68,8.17s1.15,5.61,3.35,7.24a12.449,12.449,0,0,0,5.52,1.82c1.38.22,3.11.29,3.83-.91a3.411,3.411,0,0,0,.38-1.58l.34-4c.07-.86.37-2,1.23-2s1.3,1.11,2,1.62a2.17,2.17,0,0,0,3-1,5,5,0,0,0,.08-3.5,16.62,16.62,0,0,0-8.53-10.57,25.642,25.642,0,0,1-4.16-2.17,14.149,14.149,0,0,1-3.27-4.12c-7.56-12.45-15.16-25-20.5-38.51a28.488,28.488,0,0,1-2.11-7.59,49,49,0,0,1,.33-8,45.791,45.791,0,0,0-1.32-14.28,11.23,11.23,0,0,0-1.37-3.47c-2.19-3.34-7.36-3.83-10.62-1.53a10.94,10.94,0,0,0-4.22,7.72c-.24,2.69,1.32,5.5,2.11,8Q217.37,626.81,221,638.44Z" transform="translate(-51.77 -49.02)"/>
      <path id="Path_55" data-name="Path 55" class="cls-20" d="M221,638.44c1,3.16,2,6.32,3.21,9.4A79.542,79.542,0,0,0,232.52,663a109.208,109.208,0,0,0,6.87,9c3.06,3.61,6.48,7.24,7.56,11.85.63,2.66.42,5.45.68,8.17s1.15,5.61,3.35,7.24a12.449,12.449,0,0,0,5.52,1.82c1.38.22,3.11.29,3.83-.91a3.411,3.411,0,0,0,.38-1.58l.34-4c.07-.86.37-2,1.23-2s1.3,1.11,2,1.62a2.17,2.17,0,0,0,3-1,5,5,0,0,0,.08-3.5,16.62,16.62,0,0,0-8.53-10.57,25.642,25.642,0,0,1-4.16-2.17,14.149,14.149,0,0,1-3.27-4.12c-7.56-12.45-15.16-25-20.5-38.51a28.488,28.488,0,0,1-2.11-7.59,49,49,0,0,1,.33-8,45.791,45.791,0,0,0-1.32-14.28,11.23,11.23,0,0,0-1.37-3.47c-2.19-3.34-7.36-3.83-10.62-1.53a10.94,10.94,0,0,0-4.22,7.72c-.24,2.69,1.32,5.5,2.11,8Q217.37,626.81,221,638.44Z" transform="translate(-51.77 -49.02)"/>
      <path id="Path_56" data-name="Path 56" class="cls-21" d="M372.75,757.18c-3.92,2.39-8.8,2.53-13.36,2-.73-.09-1.6-.15-2.07.42-.68.82.12,2,.95,2.7a19.88,19.88,0,0,0,9.18,3.77,62.623,62.623,0,0,0,9,.6c8.19.14,16.42.27,24.53-.91a3.25,3.25,0,0,0,1.34-.39,2.54,2.54,0,0,0,1-1.54,6.13,6.13,0,0,0-2.14-5.84,18,18,0,0,0-5.72-3.07l-7.12-2.77c-1.67-.65-4.36-2.38-6.17-2.24C378.81,750.13,375.58,755.52,372.75,757.18Z" transform="translate(-51.77 -49.02)"/>
      <path id="Path_57" data-name="Path 57" class="cls-21" d="M390.64,773.91a17.49,17.49,0,0,1-11.95,4.46c-1.12,0-2.68.21-2.68,1.33a1.76,1.76,0,0,0,.32.93,11,11,0,0,0,6.18,4.84,22,22,0,0,0,7.46.47l7.3-.38c1.38-.07,2.77-.14,4.14-.31s2.86-.45,4.29-.67a57.211,57.211,0,0,1,10.63-.5,3.09,3.09,0,0,0,2.62-.7c.65-.82.27-2,.06-3-.44-2.11,0-4.33-.41-6.46-.7-3.72-3.9-6.58-7.45-7.93-3.28-1.25-9.1-2.68-12.21-.6C395.6,767.6,393.59,771.24,390.64,773.91Z" transform="translate(-51.77 -49.02)"/>
      <path id="Path_58" data-name="Path 58" class="cls-16" d="M376.22,679.45c-3,3.95-6,8.51-5.3,13.39.4,2.63,1.87,4.95,2.95,7.39a52.088,52.088,0,0,1,3,10.38c1.11,5.17,2.22,10.35,2.91,15.59a97.361,97.361,0,0,1,.65,17.9c-.09,1.44-.25,3-1.25,4-.4.4-.92.73-1.09,1.27a2.15,2.15,0,0,0,.23,1.5,16.61,16.61,0,0,0,8.9,8.19,34.088,34.088,0,0,0,12.1,2.26,3.4,3.4,0,0,0,1.62-.21,3.12,3.12,0,0,0,1.25-1.43c3-5.7,1.33-12.58,1.38-19,0-5.37,1.3-10.69,1.07-16.06-.19-4.3-1.34-8.5-1.76-12.79-.69-7,.6-14.1,1.89-21.05,1-5.32,2-10.65,3.25-15.92a30.359,30.359,0,0,1,3.44-9.24c1.4-2.21,3.3-4.06,4.9-6.14a27.87,27.87,0,0,0,5.48-20.37c-.1-.72-10.3,2.58-11.18,3a34.663,34.663,0,0,0-10,6.41c-2.36,2.24-4.21,5.24-6.28,7.76Q390,661.61,385.76,667,380.92,673.18,376.22,679.45Z" transform="translate(-51.77 -49.02)"/>
      <path id="Path_59" data-name="Path 59" class="cls-20" d="M376.22,679.45c-3,3.95-6,8.51-5.3,13.39.4,2.63,1.87,4.95,2.95,7.39a52.088,52.088,0,0,1,3,10.38c1.11,5.17,2.22,10.35,2.91,15.59a97.361,97.361,0,0,1,.65,17.9c-.09,1.44-.25,3-1.25,4-.4.4-.92.73-1.09,1.27a2.15,2.15,0,0,0,.23,1.5,16.61,16.61,0,0,0,8.9,8.19,34.088,34.088,0,0,0,12.1,2.26,3.4,3.4,0,0,0,1.62-.21,3.12,3.12,0,0,0,1.25-1.43c3-5.7,1.33-12.58,1.38-19,0-5.37,1.3-10.69,1.07-16.06-.19-4.3-1.34-8.5-1.76-12.79-.69-7,.6-14.1,1.89-21.05,1-5.32,2-10.65,3.25-15.92a30.359,30.359,0,0,1,3.44-9.24c1.4-2.21,3.3-4.06,4.9-6.14a27.87,27.87,0,0,0,5.48-20.37c-.1-.72-10.3,2.58-11.18,3a34.663,34.663,0,0,0-10,6.41c-2.36,2.24-4.21,5.24-6.28,7.76Q390,661.61,385.76,667,380.92,673.18,376.22,679.45Z" transform="translate(-51.77 -49.02)"/>
      <path id="Path_60" data-name="Path 60" class="cls-16" d="M397.88,649.07c.64,3.06,3.61,5.4,3.69,8.53.07,2.5-1.71,4.6-3,6.75a45.277,45.277,0,0,0-3.06,6.94,105.821,105.821,0,0,1-9,17.87c-1.71,2.72-3.63,5.67-3.23,8.86a13.081,13.081,0,0,0,1.55,4.23l5.14,10.21a29.3,29.3,0,0,1,2.62,6.45c.45,1.94.49,4,.75,5.92.81,6.26,3.74,12.56,2,18.63-.15.52-.7,1.15-1.11.79,1.7,3.17,3.07,6.37,2.93,10-.06,1.89-.64,3.85.06,5.61A6.121,6.121,0,0,1,398,762c0,.51-.24,1-.29,1.51-.14,1.44,1.18,2.65,2.56,3.11s2.88.43,4.27.84c2.68.8,4.58,3.1,6.88,4.7a14.45,14.45,0,0,0,7.89,2.57,2,2,0,0,0,1.16-.23,1.9,1.9,0,0,0,.65-1.41,7.84,7.84,0,0,0-2.83-6.81,3.151,3.151,0,0,1-1-1.1,2.669,2.669,0,0,1-.1-1.23,91.208,91.208,0,0,0-.3-16.85,26,26,0,0,1-.26-5.36,21.911,21.911,0,0,0,.43-4.47,22.819,22.819,0,0,0-1.37-4.27c-.79-2.55-.57-5.29-.65-8a70.119,70.119,0,0,0-2.26-13.69,10.39,10.39,0,0,0-2.13-4.94c-1.07-1.12-2.8-2.18-2.39-3.67a4.24,4.24,0,0,1,1-1.46,5.86,5.86,0,0,0,1.23-4.47,2,2,0,0,0,2.3-1.08,36,36,0,0,0,18.08-20.56,6.677,6.677,0,0,1,.81-1.83c.77-1.08,2.12-1.55,3.31-2.15,3.74-1.88,6.32-5.41,8.69-8.86a20.61,20.61,0,0,0,3.36-6.43,21.182,21.182,0,0,0,.46-4.64l.21-8a4.591,4.591,0,0,0-.15-1.57,4,4,0,0,0-.87-1.28,15.53,15.53,0,0,0-8.54-4.6c-2.19-.39-4.43-.32-6.65-.5-4.3-.36-8.55-1.69-12.86-1.38-6.76.5-12.78,5.19-16,11.17C401.46,647.2,400.28,649,397.88,649.07Z" transform="translate(-51.77 -49.02)"/>
      <path id="Path_61" data-name="Path 61" class="cls-15" d="M173.49,771.54a10.889,10.889,0,0,0,4.6.55c.11-1.27,1.82-1.55,3.09-1.49a3.55,3.55,0,0,1,1.82.4c.32.2.56.5.87.71a3.741,3.741,0,0,0,1.8.46l6.62.56c2.95.25,6,.48,8.78-.58a2.871,2.871,0,0,0,1.41-.94c.75-1.07,0-2.61-1-3.39s-2.37-1.14-3.41-1.94c-2.3-1.75-2.61-5-3.83-7.64a22.048,22.048,0,0,0-3.16-4.59,17.571,17.571,0,0,0-3.13-3.2c-2.65-1.92-5.71-1.88-8.82-2.15-2.2-.2-4.27-.33-5.85,1.62-1.95,2.42-1.17,7.3-1.05,10.19a72.938,72.938,0,0,0,1.26,11.43Z" transform="translate(-51.77 -49.02)"/>
      <path id="Path_62" data-name="Path 62" class="cls-20" d="M173.49,771.54a10.889,10.889,0,0,0,4.6.55c.11-1.27,1.82-1.55,3.09-1.49a3.55,3.55,0,0,1,1.82.4c.32.2.56.5.87.71a3.741,3.741,0,0,0,1.8.46l6.62.56c2.95.25,6,.48,8.78-.58a2.871,2.871,0,0,0,1.41-.94c.75-1.07,0-2.61-1-3.39s-2.37-1.14-3.41-1.94c-2.3-1.75-2.61-5-3.83-7.64a22.048,22.048,0,0,0-3.16-4.59,17.571,17.571,0,0,0-3.13-3.2c-2.65-1.92-5.71-1.88-8.82-2.15-2.2-.2-4.27-.33-5.85,1.62-1.95,2.42-1.17,7.3-1.05,10.19a72.938,72.938,0,0,0,1.26,11.43Z" transform="translate(-51.77 -49.02)"/>
      <path id="Path_63" data-name="Path 63" class="cls-16" d="M176.17,642.86c-2,.65-2.9,3.17-2.53,5.27s1.63,3.9,2.67,5.75c2.94,5.27,4.22,11.3,6.69,16.8,1.85,4.11,4.35,7.91,6.18,12s3,8.77,1.85,13.14c-.54,2.13-1.58,4.09-2.28,6.17a35,35,0,0,0-1.34,7,132.681,132.681,0,0,0-.48,24.16,7.34,7.34,0,0,0,.61,2.86c.41.8,1.13,1.64.78,2.47-.14.33-.44.57-.59.9-.42.92.43,1.88,1.2,2.53a2.07,2.07,0,0,1-1.3,1,3.07,3.07,0,0,1,1.31,3.42c-.69.1-.73,1.15-.29,1.7s1.11.9,1.42,1.52a2.13,2.13,0,0,1-1.17,2.68,5.481,5.481,0,0,1-3.19.24,34.584,34.584,0,0,1-5.34-1.17,4.8,4.8,0,0,1-1.64-.75,4.87,4.87,0,0,1-1.47-3.24,58.552,58.552,0,0,1-.37-10c.29-16.16,0-32.34-.7-48.49-.29-6.5-2.24-12.84-4.76-18.84a96.663,96.663,0,0,0-4.64-9c-3.62-6.66-6.84-14-6-21.55.09-.81.39-1.79,1.19-1.92a1.73,1.73,0,0,1,.92.15,42.527,42.527,0,0,1,4.85,2.68,18.38,18.38,0,0,0,8.42,2.52Z" transform="translate(-51.77 -49.02)"/>
      <path id="Path_64" data-name="Path 64" class="cls-20" d="M176.17,642.86c-2,.65-2.9,3.17-2.53,5.27s1.63,3.9,2.67,5.75c2.94,5.27,4.22,11.3,6.69,16.8,1.85,4.11,4.35,7.91,6.18,12s3,8.77,1.85,13.14c-.54,2.13-1.58,4.09-2.28,6.17a35,35,0,0,0-1.34,7,132.681,132.681,0,0,0-.48,24.16,7.34,7.34,0,0,0,.61,2.86c.41.8,1.13,1.64.78,2.47-.14.33-.44.57-.59.9-.42.92.43,1.88,1.2,2.53a2.07,2.07,0,0,1-1.3,1,3.07,3.07,0,0,1,1.31,3.42c-.69.1-.73,1.15-.29,1.7s1.11.9,1.42,1.52a2.13,2.13,0,0,1-1.17,2.68,5.481,5.481,0,0,1-3.19.24,34.584,34.584,0,0,1-5.34-1.17,4.8,4.8,0,0,1-1.64-.75,4.87,4.87,0,0,1-1.47-3.24,58.552,58.552,0,0,1-.37-10c.29-16.16,0-32.34-.7-48.49-.29-6.5-2.24-12.84-4.76-18.84a96.663,96.663,0,0,0-4.64-9c-3.62-6.66-6.84-14-6-21.55.09-.81.39-1.79,1.19-1.92a1.73,1.73,0,0,1,.92.15,42.527,42.527,0,0,1,4.85,2.68,18.38,18.38,0,0,0,8.42,2.52Z" transform="translate(-51.77 -49.02)"/>
      <path id="Path_65" data-name="Path 65" class="cls-16" d="M148.85,623.21a5.332,5.332,0,0,0-7.35.79,40.163,40.163,0,0,0-3.8,3.34,20.33,20.33,0,0,0-4.54,20.11c1.21,3.59,3.4,6.76,5.56,9.86l4.4,6.32c6.71,9.64,13.43,19.28,20.46,28.69a1.08,1.08,0,0,0,.76,1c.26.07.57.06.73.27a.78.78,0,0,1,.09.43,6.53,6.53,0,0,1-.39,2,.93.93,0,0,0-.08.69c.22.53,1.19.23,1.49.73a.8.8,0,0,1-.32,1,1.157,1.157,0,0,0-.55,1c.05.41.72.79.69,1.29,0,.28-.24.49-.41.71a1.81,1.81,0,0,0,.22,2.31c.46,4.6-2,8.95-2.53,13.55-.79,7.23,2.48,14.29,2.88,21.55a5.77,5.77,0,0,0,.45,2.38c.68,1.25,2.42,2,2.36,3.43a13.091,13.091,0,0,1-.49,1.73,13.91,13.91,0,0,0,.26,2.47c0,.83-.7,1.82-1.47,1.5q.87,2.88,1.54,5.81l15.4,1.27a13.831,13.831,0,0,0-.14-4.16c-.32-1.48-1-2.87-1.34-4.35a5.13,5.13,0,0,1,.61-4.35,1.7,1.7,0,0,1-1.7-1.4,6.859,6.859,0,0,1,0-2.39c.41-4-1.28-8-1.23-12,.05-3.18,1.16-6.23,1.73-9.35,1.2-6.68-.05-13.93,2.92-20,1.8-3.68,4.29-7.76,2.27-11.32-1-1.76-2.75-3-3.89-4.62a18.77,18.77,0,0,1-2.09-5c-2.38-7.36-6.21-14.15-9.58-21.12a22.229,22.229,0,0,1-2.06-5.55,28.21,28.21,0,0,1-.25-5.12,78.479,78.479,0,0,0-.57-9.2,6.707,6.707,0,0,0-3.52-6C160.32,628.07,154.3,626.08,148.85,623.21Z" transform="translate(-51.77 -49.02)"/>
      <path id="Path_66" data-name="Path 66" class="cls-15" d="M167.3,777.18a10.89,10.89,0,0,0,4.6.55c.12-1.27,1.82-1.55,3.09-1.49a3.55,3.55,0,0,1,1.77.41c.32.2.56.5.88.71a3.68,3.68,0,0,0,1.8.46l6.61.56c2.95.25,6,.48,8.79-.58a2.889,2.889,0,0,0,1.4-.94c.75-1.07,0-2.61-1-3.39s-2.37-1.14-3.42-1.94c-2.29-1.75-2.61-5-3.83-7.64a22.048,22.048,0,0,0-3.16-4.59,17.52,17.52,0,0,0-3.12-3.2c-2.66-1.92-5.71-1.88-8.82-2.15-2.21-.2-4.28-.33-5.85,1.62-2,2.42-1.18,7.3-1.06,10.19a74.3,74.3,0,0,0,1.32,11.42Z" transform="translate(-51.77 -49.02)"/>
      <rect id="Rectangle_15" data-name="Rectangle 15" class="cls-14" width="78.03" height="78.03" transform="translate(199.03 612.17)"/>
      <circle id="Ellipse_7" data-name="Ellipse 7" class="cls-17" cx="15.25" cy="15.25" r="15.25" transform="translate(168.52 517.03)"/>
      <path id="Path_67" data-name="Path 67" class="cls-17" d="M221.16,585.82c-2.19,1.89-5.32,2-8.19,2.32a51.191,51.191,0,0,0-17.62,5.1,6.29,6.29,0,0,0-2,1.4,5.77,5.77,0,0,0-1,2.18,14.42,14.42,0,0,0-.58,5.3,15.279,15.279,0,0,0,1.47,5,26.84,26.84,0,0,0,9.46,10.78A6.871,6.871,0,0,0,205,619c2,.42,3.95-.75,5.92-1.27a9.7,9.7,0,0,1,5.47.18c1.66.55,3.41,1.56,5,.89a5.22,5.22,0,0,0,2.28-2.59,87.887,87.887,0,0,0,4.16-9.11,34.534,34.534,0,0,1,1.51-3.54c1.77-3.37,4.83-6,6.35-9.46a2.08,2.08,0,0,0,.14-1.78,2.469,2.469,0,0,0-1.12-.86,26.727,26.727,0,0,1-6.09-4.78c-1-1-2.85-3.56-4.29-3.79C222.75,582.68,222.26,584.88,221.16,585.82Z" transform="translate(-51.77 -49.02)"/>
      <path id="Path_68" data-name="Path 68" class="cls-7" d="M221.52,616.81c-1.77.85-3.85.47-5.77.07-4.94-1-9.93-2.08-14.5-4.22a7.76,7.76,0,0,1-3.56-2.73,8.731,8.731,0,0,1-1-3.42l-.84-5.67c-.29-2,.22-3.82.26-5.82a1.7,1.7,0,0,0-.33-1.27,1.37,1.37,0,0,0-1-.31c-2.29,0-3.67,2.43-5.28,4.06a9.75,9.75,0,0,1-3.24,2.18c-1.47.6-3.28,1-3.87,2.49-.25.61-.22,1.31-.47,1.92-1,2.44-5.4,1.63-6.51,4-.32.68-.3,1.54-.83,2.08s-1.5.52-2.3.66c-3.18.52-4.73,4.2-7.45,5.93-2.29,1.46-5.24,1.43-7.7,2.57a29.494,29.494,0,0,1-4,2,18.907,18.907,0,0,1-4.64.23,1.25,1.25,0,0,0-.93.3,1.28,1.28,0,0,0-.15,1,28.07,28.07,0,0,0,17.35,21.73,6.12,6.12,0,0,1,1.48.71c1.39,1,1.63,3.27,3.2,4a3.31,3.31,0,0,0,3.34-.72,29.056,29.056,0,0,0,2.41-2.66,9.6,9.6,0,0,1,5.37-2.82c1.89-.3,4-.08,5.53-1.24a17.006,17.006,0,0,0,1.74-1.86,10.909,10.909,0,0,1,4-2.36,40,40,0,0,1,12.5-2.64c4-.23,8.15.14,11.94-1.17a7,7,0,0,0,2.66-1.5,8,8,0,0,0,1.78-3.09A23.59,23.59,0,0,0,221.52,616.81Z" transform="translate(-51.77 -49.02)"/>
      <path id="Path_69" data-name="Path 69" class="cls-15" d="M201.86,594.34c1.13-.1,2.26,0,3.39,0,1.33,0,2.64-.32,4-.33a9.86,9.86,0,0,1,9.3,7.08,1.8,1.8,0,0,1,.06,1,.71.71,0,0,1-.77.52,16.9,16.9,0,0,0-1.71-3.43,9.71,9.71,0,0,0-5.12-3.56,13.29,13.29,0,0,0-6.3-.23c-.86.16-1.71.39-2.56.63L198,597.14c-.75.2-1.5.41-2.23.68-.56.2-1.53,1-2.08,1-.75,0-.14-.65.19-1.09a5.34,5.34,0,0,1,2.66-1.93,22.38,22.38,0,0,1,5.32-1.46Z" transform="translate(-51.77 -49.02)"/>
      <path id="Path_70" data-name="Path 70" class="cls-17" d="M212.14,640.15c1,3.16,2,6.32,3.21,9.4a79.541,79.541,0,0,0,8.32,15.16,109.239,109.239,0,0,0,6.87,9c3.06,3.61,6.48,7.24,7.56,11.85.63,2.66.42,5.45.68,8.17s1.15,5.61,3.35,7.24a12.45,12.45,0,0,0,5.52,1.82c1.38.22,3.11.29,3.83-.91a3.41,3.41,0,0,0,.38-1.58l.33-4c.08-.86.38-2,1.24-2s1.3,1.11,2,1.62a2.17,2.17,0,0,0,3-1,5.07,5.07,0,0,0,.08-3.5A16.62,16.62,0,0,0,250,680.84a25.64,25.64,0,0,1-4.16-2.17,14,14,0,0,1-3.27-4.12c-7.57-12.45-15.17-25-20.5-38.51a28.491,28.491,0,0,1-2.11-7.59,49,49,0,0,1,.33-8,45.79,45.79,0,0,0-1.29-14.3,11.23,11.23,0,0,0-1.37-3.47c-2.19-3.34-7.36-3.83-10.62-1.53a10.94,10.94,0,0,0-4.22,7.72c-.24,2.69,1.32,5.5,2.11,8Q208.52,628.52,212.14,640.15Z" transform="translate(-51.77 -49.02)"/>
      <path id="Path_71" data-name="Path 71" class="cls-16" d="M257.73,570.52c.12-1.27-1-2.42-2.31-3.23a32.249,32.249,0,0,1-3.92-2.4c-1.16-1-1.79-2.31-2.95-3.31a13,13,0,0,0-4.4-2.19,33.4,33.4,0,0,0-10.52-1.89,18.529,18.529,0,0,0-10.07,2.66,6,6,0,0,0-1.71,1.59,7,7,0,0,0-.83,2.53,50,50,0,0,1-2.63,8c-1.13,2.88-2.34,5.86-5,8.08-2.85,2.38-7.22,3.75-9.1,6.62a2.15,2.15,0,0,0-.41,1.85c.27.72,1.14,1.21,1.93,1.67,4.63,2.66,8.62,6.1,10.68,10.22a11.85,11.85,0,0,1-.94,12.75c-1.07,1.4-2.55,3.06-1.5,4.47,1.59,2.14,7.08.92,8.34,3.18a4.52,4.52,0,0,1,.17,2.34c0,2.37,2.29,4.49,5.07,5.58a28.27,28.27,0,0,0,9.12,1.5,7.88,7.88,0,0,0,.23-5.9,2.36,2.36,0,0,1-.23-1.34,3.22,3.22,0,0,1,1-1.29c3.35-3.16,2.64-7.81.63-11.56s-5.13-7.19-6.29-11.14c-.58-2-.59-4.17,1-5.8a20.2,20.2,0,0,1,2.87-2.1,10.91,10.91,0,0,0,4-5c.93-2.6.79-5.73,3.53-7.45s6.29-1.16,9.18-2.27C255,575.76,257.55,572.37,257.73,570.52Z" transform="translate(-51.77 -49.02)"/>
      <circle id="Ellipse_8" data-name="Ellipse 8" class="cls-19" cx="16.63" cy="16.63" r="16.63" transform="translate(274.84 510.26)"/>
      <path id="Path_72" data-name="Path 72" class="cls-19" d="M358.21,575.21a21.56,21.56,0,0,0,13.8,9.65l-1.25,4.54c-2.16,7.82-4.6,16.1-10.64,21.52a10.06,10.06,0,0,0-1.69-7.78,29.46,29.46,0,0,0-5.64-5.9l-9.57-8.33a2.61,2.61,0,0,1-.72-.8,2.44,2.44,0,0,1,0-1.82c1.22-3.8,4.7-6.17,7.52-8.73a26.522,26.522,0,0,0,3.79-4.41C355.77,570.45,357,573.18,358.21,575.21Z" transform="translate(-51.77 -49.02)"/>
      <path id="Path_73" data-name="Path 73" class="cls-21" d="M360.33,596.72a9,9,0,0,1-.49,3.67,2.58,2.58,0,0,1-3,1.54c.35-.79-.57-1.69-1.43-1.59a2.69,2.69,0,0,0-1.9,1.61,6,6,0,0,0-.55,3.72c.27,1.58,1.18,3.09.94,4.67-.19,1.31-1.16,2.62-.64,3.85a6.182,6.182,0,0,0,1.24,1.48,4.2,4.2,0,0,1-.45,5.76l13,.25c-.48,2.17.5,4.39,1.61,6.31a39.73,39.73,0,0,0,29.62,19.34,2.58,2.58,0,0,0-.62,3.94c1.06,1.05,2.84.92,4.16.24a31.568,31.568,0,0,0,3.57-2.67,10.91,10.91,0,0,1,7.32-2c1.63.15,3.2.67,4.83.76,4.8.26,8.93-3.2,13.52-4.61,3.37-1,7.18-1,10-3.14,1.22-.9,2.22-2.38,1.86-3.86a6.29,6.29,0,0,0-1.4-2.26c-1.63-2.11-2.58-4.64-3.75-7a41.79,41.79,0,0,0-9.37-12.54,82.713,82.713,0,0,0-9.28-7.05,15.708,15.708,0,0,0-2.52-1.51,25.82,25.82,0,0,1-3.44-1.4c-1.53-1-2.4-2.65-3.57-4-2.57-3-6.52-4.37-9.69-6.73-2.12-1.58-4-3.66-6.53-4.43-1.23-.37-2.55-.4-3.78-.77-2.8-.85-4.84-3.34-7.59-4.34-2.17-.8-4.57-.59-6.87-.88a16,16,0,0,1-7.06-2.67,8.491,8.491,0,0,0-2.28-1.34c-3.47-1-3.75,5.42-4.08,7.66C361.19,590,360.33,593.35,360.33,596.72Z" transform="translate(-51.77 -49.02)"/>
      <path id="Path_74" data-name="Path 74" class="cls-19" d="M363.72,618.43c.58,6.31-4.19,12.43-2.8,18.62.3,1.32.86,2.57,1.07,3.9.58,3.67-1.61,7.14-3.7,10.21l-18,26.34a16,16,0,0,1-2.56,3.17c-3.44,3.05-8.58,2.73-13.09,3.65a22.409,22.409,0,0,0-8.77,3.88.57.57,0,0,0-.11.78,7.52,7.52,0,0,0,6.52,3.06c.47.62,0,1.54-.65,2-1,.67-2.29.85-2.48,2.48a2.78,2.78,0,0,0,.32,1.65,5.12,5.12,0,0,0,3.15,2.18c6.21,1.9,12.92-1.44,17.57-6s8-10.27,12.56-14.9c2.53-2.56,5.4-4.75,8-7.23,5.19-5,9.23-11,13.13-17a18.921,18.921,0,0,0,2.84-5.79c.48-2.05.26-4.23.82-6.26.72-2.67,2.67-4.8,4.3-7,3.19-4.39,5.31-9.75,4.89-15.16s-3.77-10.73-8.86-12.57a7.93,7.93,0,0,0-5-.3c-2.09.64-3.63,2.37-5.06,4l-3.41,3.94a9.36,9.36,0,0,0-2,3,3.15,3.15,0,0,0,.7,3.35" transform="translate(-51.77 -49.02)"/>
      <path id="Path_75" data-name="Path 75" class="cls-21" d="M372.8,592.5c-2.36.14-5,.37-6.63,2a9.26,9.26,0,0,0-1.66,2.62c-1.62,3.29-3.2,6.74-3.31,10.41-.1,2.93.75,5.8,1.2,8.7.37,2.41-.57,4.87-.75,7.31a49.912,49.912,0,0,0,9.44-3.63,31.558,31.558,0,0,1,5.53-2.87c2.81-.94,7.55.67,10.21,2,.15-1.88-1.26-5.15-1.11-7a7.67,7.67,0,0,1,.42-2.33,13.889,13.889,0,0,1,1.41-2.25,9.21,9.21,0,0,0-.83-10.81c-2.37-2.67-6.09-3.67-9.64-4.09a42.156,42.156,0,0,0-6.74-.23" transform="translate(-51.77 -49.02)"/>
      <path id="Path_76" data-name="Path 76" class="cls-16" d="M321.33,559.19l-.38-3.13c2.63.67,5.12-1.55,6.8-3.86s3.23-5,5.78-6c3.11-1.17,6.4.7,9.37,2.24A29.33,29.33,0,0,0,353.65,552a7.613,7.613,0,0,1,1.78.29c1.93.69,2.85,3.11,3.13,5.31s.2,4.54,1.15,6.5c.73,1.48,2,2.59,2.72,4,2,3.93.07,9.31,2.22,13.17l-5.33-4.88c-.49-.45-1.18-.92-1.71-.54s-.46,1-.64,1.47a2.79,2.79,0,0,1-3.79,1.38,10.39,10.39,0,0,1-3.39-3.1,20.719,20.719,0,0,0-8.46-6.41,10.81,10.81,0,0,0-8.95.53c-2.49,1.41-4.31,4.68-7.36,4.79-4.18.16-5.92-7.62-7.85-10.69a3.79,3.79,0,0,0,1.1-4.72C318.56,559,321.27,558.71,321.33,559.19Z" transform="translate(-51.77 -49.02)"/>
      <path id="Path_77" data-name="Path 77" class="cls-6" d="M697.55,361.29a18.348,18.348,0,0,1-5.22,1.43,9.15,9.15,0,0,0,4-5,18.29,18.29,0,0,1-5.78,2.21,9.08,9.08,0,0,0-15.73,6.21,8.9,8.9,0,0,0,.23,2.08,25.75,25.75,0,0,1-18.74-9.52,9.13,9.13,0,0,0,2.82,12.16,8.86,8.86,0,0,1-4.13-1.14v.11a9.11,9.11,0,0,0,7.3,8.93,9.452,9.452,0,0,1-2.4.32,8.85,8.85,0,0,1-1.71-.17,9.13,9.13,0,0,0,8.5,6.32,18.24,18.24,0,0,1-11.3,3.9,19.584,19.584,0,0,1-2.17-.13,25.47,25.47,0,0,0,13.92,4.11c16.75,0,25.9-13.87,25.9-25.91v-1.17A18.48,18.48,0,0,0,697.55,361.29Z" transform="translate(-51.77 -49.02)"/>
      <path id="Path_78" data-name="Path 78" class="cls-7" d="M664.5,557.08l3,7.53,19.59,20.77,6.56-6.18,4.13,4.37,4.37-4.13.25-8.49,5.46-5.16.44-14.87-17.53-18.58Zm39.5-4.16-.25,8.5-6.56,6.18-.25,8.5-4.12-4.37-5.47,5.16L669.78,558.3l20.77-19.59Z" transform="translate(-51.77 -49.02)"/>
      <path id="Path_79" data-name="Path 79" class="cls-7" d="M688.05,549.2l3.28-3.09,8.32,8.81L696.37,558Zm-7.65,7.22,3.28-3.1,8.31,8.82-3.28,3.09Z" transform="translate(-51.77 -49.02)"/>
      <path id="Path_80" data-name="Path 80" class="cls-8" d="M302,676H269.92a2,2,0,0,0-2,2v32.09a2,2,0,0,0,2,2h16V697.8h-4.31v-5.26H286v-3.89c0-4.65,3.23-7.19,7.39-7.19,2,0,4.14.15,4.63.22v4.86h-3.31c-2.26,0-2.7,1.07-2.7,2.65v3.35h5.39l-.7,5.26H292v14.28h10a2,2,0,0,0,2-2V678A2,2,0,0,0,302,676Z" transform="translate(-51.77 -49.02)"/>
      <path id="Path_81" data-name="Path 81" class="cls-18" d="M582.48,447a7.53,7.53,0,0,1,7.51,7.51v15a7.53,7.53,0,0,1-7.51,7.51h-15a7.54,7.54,0,0,1-5.31-2.2,7.45,7.45,0,0,1-2.21-5.31v-15a7.53,7.53,0,0,1,7.52-7.51h15m0-3h-15a10.55,10.55,0,0,0-10.52,10.52v15a10.55,10.55,0,0,0,10.52,10.52h15A10.55,10.55,0,0,0,593,469.56v-15A10.56,10.56,0,0,0,582.48,444Z" transform="translate(-51.77 -49.02)"/>
      <path id="Path_82" data-name="Path 82" class="cls-18" d="M584.73,454.53a2.24,2.24,0,1,1,1.594-.656,2.26,2.26,0,0,1-1.594.656ZM575,456a6,6,0,1,1-6,6,6,6,0,0,1,6-6m0-3a9,9,0,1,0,9,9A9,9,0,0,0,575,453Z" transform="translate(-51.77 -49.02)"/>
      <path id="Path_83" data-name="Path 83" class="cls-18" d="M1046.69,613.88c0-4.22-3.11-7.62-7-7.62-5.21-.25-10.51-.34-15.93-.34h-1.69c-5.41,0-10.73.09-15.93.34-3.83,0-6.94,3.41-6.94,7.64-.24,3.35-.34,6.69-.33,10s.09,6.69.32,10c0,4.23,3.11,7.66,6.94,7.66,5.46.25,11.07.36,16.77.36s11.3-.1,16.78-.36c3.84,0,7-3.43,7-7.66.22-3.35.33-6.69.32-10.05s-.09-6.68-.31-10Zm-28.33,19.27V614.69l13.62,9.22Z" transform="translate(-51.77 -49.02)"/>
      <path id="Path_84" data-name="Path 84" class="cls-18" d="M550,260a21,21,0,0,0-8.44,40.31,18.721,18.721,0,0,1,.36-4.83c.41-1.71,2.71-11.47,2.71-11.47a8,8,0,0,1-.68-3.32c0-3.12,1.81-5.45,4.06-5.45,1.92,0,2.84,1.44,2.84,3.16,0,1.92-1.23,4.8-1.86,7.46a3.25,3.25,0,0,0,3.32,4.05c4,0,6.67-5.12,6.67-11.19,0-4.61-3.11-8.05-8.75-8.05a10,10,0,0,0-10.36,10.07,6.05,6.05,0,0,0,1.39,4.13,1,1,0,0,1,.3,1.17c-.1.39-.33,1.32-.43,1.69a.73.73,0,0,1-1.06.53c-2.94-1.2-4.31-4.42-4.31-8,0-6,5-13.14,15-13.14,8,0,13.32,5.81,13.32,12.05,0,8.25-4.59,14.42-11.36,14.42a6,6,0,0,1-5.13-2.62s-1.23,4.84-1.49,5.78a17.34,17.34,0,0,1-2.11,4.51,21.309,21.309,0,0,0,6,.86A21.06,21.06,0,1,0,550,260Z" transform="translate(-51.77 -49.02)"/>
      <path id="Path_85" data-name="Path 85" class="cls-22" d="M770.23,842.52c-.81-3.43-1.3-6.43-1.3-6.43a13.32,13.32,0,0,0-1.49-6.53v-.94h0v-6.9a22.815,22.815,0,0,1,1.74-3.61c1.24-2.16,0-10.1,0-10.1s-4.6-11.19-3.49-18.29-9.44-31.53-9.44-31.53a31.148,31.148,0,0,1,1-7,5.054,5.054,0,0,0,.13-1.46,1.087,1.087,0,0,0,0-.18v.06c-.16-4.68-3.86-13.46-3.86-13.46l.5-16.72s2.36-9.87-1.49-23.11c-1.35-4.62-2.21-8.31-2.76-11.17-.06-.32-.12-.63-.17-.93,7.93-1.21,14-2.22,14-2.22s-4.6-19.25-7.71-22.62-5.59-13.95-5.59-13.95-1.62-13.6,1-17.57,3-10.83,3-10.83,6-4.33,6.71-6.26a31.7,31.7,0,0,0,2-8.54c0-2.29-.75-4.33-.5-5.54s-1.74-5.77-.74-7.94a5.812,5.812,0,0,0,.39-2.09.13.13,0,0,0,0-.06h0a29.722,29.722,0,0,0-.53-5.65,16,16,0,0,0-5.9-3.16l-.13-.51-.34-1.35a4.567,4.567,0,0,0-.59-.35v-2.5l.93-4.4c1.84-7.63-8.36-8.77-8.36-8.77a5.38,5.38,0,0,0-2.89-2.54c-2-.72-.34,11.5.62,12.28.72.58,3,4.42,4,6.3h0l.18.31a4.061,4.061,0,0,0-.47.49l.39,2.65.06.41a10.889,10.889,0,0,0-1.63,2.77s1.87,2.05,1.49,4.34a13.6,13.6,0,0,0,.62,5.29c-.11-.13-1.42-1.55-2.73-1.2s-5,1.44-5,1.44-2.74.48-2.49,1.08-1.86,3.25-1.86,3.25l-7.35-7c-.08-.21-.15-.42-.22-.63a16.8,16.8,0,0,1-.63-3,16.33,16.33,0,0,0,2.34-.75,5.07,5.07,0,0,0,2-1.3,7.939,7.939,0,0,0,1.18-3.17c.58-2.14,1.83-4.05,2.73-6.08A19.78,19.78,0,0,0,739,564a7.22,7.22,0,0,0-1.12-3.2c-1.2-1.65-3.38-2.32-5-3.64s-2.6-3.32-4.45-4.31a8.77,8.77,0,0,0-5.58-.48,29.821,29.821,0,0,0-10.41,3.78c-1.08.64-2.25,1.37-3.49,1.15a4.71,4.71,0,0,1-2.51-1.84.487.487,0,0,1,0-.11l-.09-.09a13.169,13.169,0,0,0-1.14,5.5v1.18a2.281,2.281,0,0,1,0,.26h0a1.76,1.76,0,0,1-.06.39,2.829,2.829,0,0,1-.68,1,4.431,4.431,0,0,0-.6.82.885.885,0,0,1,.1-.3,4.34,4.34,0,0,0-.77,2.31,2.3,2.3,0,0,0,.56,1.66,8,8,0,0,0,1.19,1,14,14,0,0,0-.21,2.44,14.22,14.22,0,0,0,6.92,12.13l.25.63a17.49,17.49,0,0,1,1.33,8,1.351,1.351,0,0,1-.09.59l-.26.3h0s-12.14.12-15-2.47-7.21,6.32-7.21,6.32-4.35.85-5.22,0-6-.12-6-.12a11,11,0,0,0-7.58-2.76,22.27,22.27,0,0,0-5.57-3.1h0l-.14-.05h0a6.221,6.221,0,0,0-2.74-.34s-6-4.94-7.7-7.58-10-12.47-10.07-12.52v-.47l-.1-1.43a5.591,5.591,0,0,1-.74.07,1.738,1.738,0,0,0-.17-.5,27,27,0,0,0-1.76-4s0-1.8.53-2.25-.22-7.07-.22-7.07-5.38-12.57-10.19-3.19c0,0-9.11,6.07-1.47,13.15,0,0,3,1.47,3.48,2.64.29.76,1.32,2.89,2,4.3l.31.63-.09.07.12,1.18v.46c-1.44.81-2.41,1.62-2.18,2.24a13.162,13.162,0,0,1,.87,3.25s10.57,13.23,11.94,18.89c0,0,28.34,16.84,37.66,18.05l-1.61,8.42a66.6,66.6,0,0,0-.37,6.86c.12,1.8-1.12,10-1.12,10s-1.62,12-3,13.71-1.12,8.91-1.12,8.91a60.1,60.1,0,0,1-1.86,10.22c-1.37,4.58-.37,10.23-.37,10.23s-4.73,10.83,6.59,3.49c0,0,5.55-.34,12-.56v3.29c-.08,6.2-.12,14.75.16,21.22.5,11.43,4,34,4,34v11.36a15.893,15.893,0,0,0-.32,3.25,21.059,21.059,0,0,0,3.06,11.38l.87,7.58s2,5,2.08,8a3.933,3.933,0,0,1-.09.72,5.379,5.379,0,0,0-.1,1.16c-.11,3.44,2,11.68,2,11.68s.13,8.3,1.37,8.78c1.06.41-1.42,4.79-2.16,6a2.011,2.011,0,0,1-.05-.24c-.09.16-.15.25-.15.25a5.831,5.831,0,0,0-.39,2.1,3,3,0,0,0,1.38,2.92c2.36,1.45,3.63,2.65,1.63,3.13a19.843,19.843,0,0,0-2.19.46c0-.09-.08-.19-.11-.28A1.34,1.34,0,0,0,705,826a6.15,6.15,0,0,0,.75,2.81,30,30,0,0,0,3.36,6.14l1-.11a4.719,4.719,0,0,1-.56,1,3.87,3.87,0,0,1-1.4,1.24,4.479,4.479,0,0,1-1.7.59,4.74,4.74,0,0,0-3.52,1.71c-1.24,1.6-2,3.79.43,5.71l8.89,3.06s15.29,2,14.48-1.44-1.3-6.43-1.3-6.43a13.57,13.57,0,0,0-1.25-6.09,6,6,0,0,0-.54-.9l.54-.06s1.12-7.58,2.61-9c.35-.33.43-.59.34-.79.16-.41-.23-.65-.73-.79l-.11.3a7.51,7.51,0,0,0-1.48-.16s-.5-4,1.11-5.42a1.529,1.529,0,0,0,.32-1.18,6.8,6.8,0,0,0-.17-1.62l-.06.1a57.754,57.754,0,0,0-3.57-9.33s-.12-3.61.87-5.06-.12-19.61-.12-19.61.37-8.78-.75-12.87,1.37-8.91,1.37-8.91v-.32s-.06-.54-.15-1.39v.09c-.25-2.33-.72-6.54-1.07-8.48-.5-2.77.12-16,.12-16l2.24-5.65,4,9.74,4.22,13a11.05,11.05,0,0,1,2.15,5.52c0,.14,0,.28,0,.41a6.528,6.528,0,0,0,0,.87,7.76,7.76,0,0,0,1.29,4.63s1.12,6.14,2.86,7.7,1.74,4.57,1.74,4.57,2.11,8.91,3.11,10.47c.84,1.32.88,4.94.87,6h0v.33s.29,3.18.28,5.86v.93a9.32,9.32,0,0,1-.26,2.16v-.32a22.261,22.261,0,0,0-.64,5.55c-.06,3.2.43,7,2.37,9.21,3.36,3.85,5.47,3.37,5.47,3.37s-1.62,4.81-3.61,5.78a1.2,1.2,0,0,0-.21.13.557.557,0,0,0-.05-.28,2.35,2.35,0,0,0-.58,1.8,12.88,12.88,0,0,0,2.46,7.13,3.94,3.94,0,0,0,1.68,1l-.31.19a7,7,0,0,1-.69.33,3.259,3.259,0,0,1-1,.26,4.74,4.74,0,0,0-3.52,1.71c-1.24,1.6-2,3.79.43,5.71l8.89,3.06S771,846,770.23,842.52Z" transform="translate(-51.77 -49.02)"/>
      <path id="Path_86" data-name="Path 86" class="cls-23" d="M711.83,848.2l-8.61-3.06c-2.37-1.92-1.61-4.11-.41-5.71a4.53,4.53,0,0,1,3.4-1.71,4.21,4.21,0,0,0,1.65-.59,3.9,3.9,0,0,0,1.36-1.24,6.33,6.33,0,0,0,1-3.33s9.45-2.76,12,0a7.061,7.061,0,0,1,1.15,1.68,14,14,0,0,1,1.2,6.09s.48,3,1.26,6.43S711.83,848.2,711.83,848.2Z" transform="translate(-51.77 -49.02)"/>
      <path id="Path_87" data-name="Path 87" class="cls-23" d="M753.94,844l-8.6-3.06c-2.38-1.92-1.62-4.11-.42-5.7a4.52,4.52,0,0,1,3.41-1.72,3.109,3.109,0,0,0,1-.26,5.067,5.067,0,0,0,.66-.33c2.41-1.32,2.35-4.57,2.35-4.57s9.44-2.77,12,0a6.692,6.692,0,0,1,.9,1.23,13.739,13.739,0,0,1,1.45,6.54s.48,3,1.26,6.43S753.94,844,753.94,844Z" transform="translate(-51.77 -49.02)"/>
      <path id="Path_88" data-name="Path 88" class="cls-9" d="M722.23,832.56a7.059,7.059,0,0,1,1.15,1.68h0l-14.16,1.64a6.33,6.33,0,0,0,1-3.33S719.65,829.8,722.23,832.56Z" transform="translate(-51.77 -49.02)"/>
      <path id="Path_89" data-name="Path 89" class="cls-9" d="M765.25,829.55v2.65c-2.2,3.63-12.85,2.84-15.94,1a5.063,5.063,0,0,0,.66-.33c2.41-1.32,2.35-4.57,2.35-4.57s9.44-2.77,12,0a6.69,6.69,0,0,1,.93,1.25Z" transform="translate(-51.77 -49.02)"/>
      <path id="Path_90" data-name="Path 90" class="cls-16" d="M766.94,818.12a23.618,23.618,0,0,0-1.69,3.61v9.51c-2.4,4-14.92,2.65-16.6.48s-3.49-7.82-1.57-8.78,3.49-5.78,3.49-5.78-2,.48-5.29-3.37S743,801.4,743.6,799.35s0-8.9,0-8.9.12-4.81-.84-6.38-3-10.47-3-10.47,0-3-1.68-4.57-2.77-7.7-2.77-7.7a7.89,7.89,0,0,1-1.2-5.17c.36-3-2.05-6.26-2.05-6.26l-4.09-13-3.85-9.75-2.16,5.65s-.61,13.24-.12,16,1.2,10.1,1.2,10.1-2.41,4.82-1.32,8.91.72,12.87.72,12.87,1.08,18.17.12,19.62-.84,5-.84,5,4.93,10.59,3.36,12-1.08,5.42-1.08,5.42,3.37,0,1.93,1.44-2.53,9-2.53,9L708.83,835a30.8,30.8,0,0,1-3.26-6.14c-1.92-4.45.36-4,2.3-4.45s.71-1.68-1.58-3.13-1-4.69-1-4.69,3.49-5.9,2.29-6.38-1.33-8.78-1.33-8.78-2.4-9.87-1.8-12.51-1.93-9-1.93-9l-.84-7.58a20.84,20.84,0,0,1-2.6-14.34V746.29s-3.37-22.62-3.86-34c-.3-7.32-.22-17.31-.12-23.55.06-3.49.12-5.81.12-5.81l52-5.41a43.08,43.08,0,0,0,.95,7.72c.53,2.85,1.36,6.55,2.66,11.17,3.73,13.23,1.45,23.1,1.45,23.1l-.48,16.72s4.57,11.19,3.61,15a31.76,31.76,0,0,0-1,7s10.23,24.43,9.15,31.53S766.94,808,766.94,808,768.14,816,766.94,818.12Z" transform="translate(-51.77 -49.02)"/>
      <path id="Path_91" data-name="Path 91" class="cls-20" d="M737.22,755.44,753,753.33S744.08,762.47,737.22,755.44Z" transform="translate(-51.77 -49.02)"/>
      <path id="Path_92" data-name="Path 92" class="cls-9" d="M750.75,737.87s.55,5.59-2.88,7.7C747.87,745.57,754,744.61,750.75,737.87Z" transform="translate(-51.77 -49.02)"/>
      <path id="Path_93" data-name="Path 93" class="cls-9" d="M749.78,720.06s-13.22,10.89-18,10S749.78,720.06,749.78,720.06Z" transform="translate(-51.77 -49.02)"/>
      <path id="Path_94" data-name="Path 94" class="cls-9" d="M717.6,760.55s-10,2.29-10.34,6.32S717.6,760.55,717.6,760.55Z" transform="translate(-51.77 -49.02)"/>
      <path id="Path_95" data-name="Path 95" class="cls-20" d="M719.81,810.72s-14.19,2.65-10.16,4.46a68.8,68.8,0,0,0,10.65,3.24S724.87,818.66,719.81,810.72Z" transform="translate(-51.77 -49.02)"/>
      <g id="Group_3" data-name="Group 3" class="cls-24">
        <path id="Path_96" data-name="Path 96" d="M706.78,818a2.81,2.81,0,0,1-1.3-2.06l-.14.26s-1.33,3.24,1,4.69c.26.16.51.33.74.49.42-.08.88-.14,1.31-.25C710.29,820.69,709.07,819.48,706.78,818Z" transform="translate(-51.77 -49.02)"/>
        <path id="Path_97" data-name="Path 97" d="M725.07,817.08c.39-.36.37-1.29.14-2.48a6.711,6.711,0,0,0-.81,3.49,2.671,2.671,0,0,1,.67-1.01Z" transform="translate(-51.77 -49.02)"/>
        <path id="Path_98" data-name="Path 98" d="M722.88,757.22a16.56,16.56,0,0,0-1,4.42,17.48,17.48,0,0,1,1.1-3A8.932,8.932,0,0,0,722.88,757.22Z" transform="translate(-51.77 -49.02)"/>
        <path id="Path_99" data-name="Path 99" d="M755.39,750.9a5.721,5.721,0,0,0,.13-1.32c-.18.9-.3,1.74-.39,2.47C755.21,751.67,755.29,751.29,755.39,750.9Z" transform="translate(-51.77 -49.02)"/>
        <path id="Path_100" data-name="Path 100" d="M722.54,800a7.572,7.572,0,0,0,.36-2.67,8.812,8.812,0,0,0-.69,3.37,3.239,3.239,0,0,1,.33-.7Z" transform="translate(-51.77 -49.02)"/>
        <path id="Path_101" data-name="Path 101" d="M725.52,822.68a48.126,48.126,0,0,0-1.65,7.39l-14.55,1.69a30.14,30.14,0,0,1-3.26-6.14,10.712,10.712,0,0,1-.41-1.06c-.87.4-1.22,1.3-.07,4a29.791,29.791,0,0,0,3.26,6.13L723.38,833s1.09-7.58,2.53-9C726.62,823.23,726.17,822.87,725.52,822.68Z" transform="translate(-51.77 -49.02)"/>
        <path id="Path_102" data-name="Path 102" d="M706.3,801.07s.12,8.31,1.32,8.79h0c.61-1.37,1-2.67.47-2.89-1.2-.48-1.32-8.78-1.32-8.78s-2.41-9.87-1.8-12.52-1.93-9-1.93-9l-.84-7.58a20.88,20.88,0,0,1-2.65-14.32V743.08s-3.37-22.62-3.85-34.05c-.31-7.32-.22-17.31-.12-23.55v-3h-.41s-.06,2.31-.12,5.81c-.1,6.23-.19,16.23.12,23.55.48,11.43,3.85,34.05,3.85,34.05v11.67A20.81,20.81,0,0,0,701.73,772l.84,7.58s2.53,6.37,1.92,9S706.3,801.07,706.3,801.07Z" transform="translate(-51.77 -49.02)"/>
        <path id="Path_103" data-name="Path 103" d="M749.13,828.51a14,14,0,0,1-2.3-5.72c-1.49,1.34.22,6.55,1.82,8.61s14.2,3.49,16.61-.49v-2.29C762,831.85,750.73,830.56,749.13,828.51Z" transform="translate(-51.77 -49.02)"/>
        <path id="Path_104" data-name="Path 104" d="M767.42,814.91a24.054,24.054,0,0,0-1.68,3.61v1.69c.27-.62.66-1.44,1.2-2.41a7.288,7.288,0,0,0,.53-3Z" transform="translate(-51.77 -49.02)"/>
        <path id="Path_105" data-name="Path 105" d="M749.87,816.81a23.165,23.165,0,0,0,1.19-2.86s-2,.48-5.3-3.37c-2.36-2.8-2.49-8.09-2.16-11.55-.6,2.05-1.57,10.59,1.68,14.44C747.41,816,749,816.65,749.87,816.81Z" transform="translate(-51.77 -49.02)"/>
        <path id="Path_106" data-name="Path 106" d="M743.6,790.13a66.1,66.1,0,0,1,.24,7.13c.08-.47.17-.85.24-1.12.61-2,0-8.9,0-8.9s.12-4.82-.84-6.38-3-10.47-3-10.47,0-3-1.68-4.57-2.77-7.7-2.77-7.7a7.89,7.89,0,0,1-1.21-5.17c.37-3-2-6.26-2-6.26l-4.09-13-3.9-9.69-2.17,5.65s0,.71-.07,1.83l1.76-4.59,3.85,9.74,4.09,13s2.4,3.25,2,6.25A7.911,7.911,0,0,0,735.3,761s1.08,6.13,2.76,7.7,1.69,4.57,1.69,4.57,2,8.9,3,10.47S743.6,790.13,743.6,790.13Z" transform="translate(-51.77 -49.02)"/>
      </g>
      <path id="Path_107" data-name="Path 107" class="cls-25" d="M753.7,568.75l-.9,4.4.05,2v1.44l-5,.52-.56-1h0c-1-1.88-3.2-5.71-3.9-6.3-.93-.78-2.58-13-.6-12.27a5.24,5.24,0,0,1,2.8,2.53S755.48,561.11,753.7,568.75Z" transform="translate(-51.77 -49.02)"/>
      <path id="Path_108" data-name="Path 108" class="cls-9" d="M752.89,576.54l-5,.52-.56-1h0a4.42,4.42,0,0,1,5.54-.91Z" transform="translate(-51.77 -49.02)"/>
      <path id="Path_109" data-name="Path 109" class="cls-26" d="M754.15,578.92l-6.61,1.54-.14-1-.38-2.65a4.55,4.55,0,0,1,6.41-.88l.33,1.35Z" transform="translate(-51.77 -49.02)"/>
      <path id="Path_110" data-name="Path 110" class="cls-25" d="M646.91,569.23l-7.06,3.8-.64-1.34c-.68-1.41-1.68-3.53-2-4.29-.42-1.17-3.37-2.65-3.37-2.65-7.4-7.07,1.41-13.14,1.41-13.14,4.67-9.39,9.87,3.18,9.87,3.18s.72,6.63.21,7.07-.51,2.26-.51,2.26a27.493,27.493,0,0,1,1.71,4C646.8,568.82,646.91,569.23,646.91,569.23Z" transform="translate(-51.77 -49.02)"/>
      <path id="Path_111" data-name="Path 111" class="cls-9" d="M646.91,569.23l-7.06,3.8-.64-1.34c1-.83,4.53-3.7,5.69-3.57a8.282,8.282,0,0,0,1.68,0C646.8,568.82,646.91,569.23,646.91,569.23Z" transform="translate(-51.77 -49.02)"/>
      <path id="Path_112" data-name="Path 112" class="cls-26" d="M647.63,571.37l-7.94,3.91-.16-1.71-.11-1.17s4.6-3.95,6-3.8a7.38,7.38,0,0,0,2.08,0l.09,1.43Z" transform="translate(-51.77 -49.02)"/>
      <path id="Path_113" data-name="Path 113" class="cls-25" d="M734.45,597.93s-34.63,3.91-28.16,1.81c4.51-1.47,6.3-4.33,6.68-7.51a18.291,18.291,0,0,0-1.29-8,34.768,34.768,0,0,0-3.1-6.26s26.47-14.56,21.18-1.32a20.758,20.758,0,0,0-1.5,6.27,17.681,17.681,0,0,0,.67,6.34,18.91,18.91,0,0,0,5.52,8.67Z" transform="translate(-51.77 -49.02)"/>
      <path id="Path_114" data-name="Path 114" class="cls-9" d="M729.76,576.64a20.759,20.759,0,0,0-1.5,6.27c-2.5,2.09-5.23,2-8.74,2-2.7,0-5.69.66-7.84-.64a34.766,34.766,0,0,0-3.1-6.26S735.05,563.4,729.76,576.64Z" transform="translate(-51.77 -49.02)"/>
      <circle id="Ellipse_9" data-name="Ellipse 9" class="cls-25" cx="14.32" cy="14.32" r="14.32" transform="translate(652.96 508.13)"/>
      <path id="Path_115" data-name="Path 115" class="cls-9" d="M734.45,597.93s-34.63,3.91-28.16,1.81c4.51-1.47,6.3-4.33,6.68-7.51,1.72-1.87,5.18-3.22,7.41-3.93a10.331,10.331,0,0,1,6.27-.1,8.36,8.36,0,0,1,2.28,1,18.909,18.909,0,0,0,5.52,8.73Z" transform="translate(-51.77 -49.02)"/>
      <path id="Path_116" data-name="Path 116" class="cls-9" d="M754.15,578.92l-6.61,1.54-.14-1a5.84,5.84,0,0,1,6.36-2.18Z" transform="translate(-51.77 -49.02)"/>
      <path id="Path_117" data-name="Path 117" class="cls-9" d="M647.63,571.37l-7.94,3.91-.16-1.71a58.433,58.433,0,0,1,8-3.54Z" transform="translate(-51.77 -49.02)"/>
      <path id="Path_118" data-name="Path 118" class="cls-9" d="M748.15,685.19c-13.41,2.11-32.5,4.87-35.53,3.95-2.51-.77-10.53-.69-17.52-.45.06-3.49.12-5.81.12-5.81l52-5.41a43.072,43.072,0,0,0,.93,7.72Z" transform="translate(-51.77 -49.02)"/>
      <path id="Path_119" data-name="Path 119" class="cls-21" d="M761.52,682s-44.16,7.58-48.9,6.13-29.07.13-29.07.13c-10.95,7.33-6.37-3.49-6.37-3.49s-1-5.66.36-10.23a62.657,62.657,0,0,0,1.8-10.23s-.24-7.22,1.08-8.9,2.89-13.72,2.89-13.72,1.21-8.18,1.09-10,.36-6.85.36-6.85l1.56-8.43c-9-1.2-36.46-18.05-36.46-18.05-1.32-5.65-11.55-18.89-11.55-18.89a13.929,13.929,0,0,0-.84-3.25c-.72-1.92,10.11-5.77,10.11-5.77s8.06,9.87,9.74,12.51,7.46,7.58,7.46,7.58a5.83,5.83,0,0,1,2.65.35h.14a21.342,21.342,0,0,1,5.38,3.09,10.43,10.43,0,0,1,7.34,2.77s4.94-.72,5.78.12,5,0,5,0,4.22-8.9,7-6.32,14.51,2.47,14.51,2.47c1.57-2.08,5.37-3.57,7.76-4.34a10.33,10.33,0,0,1,6.27-.1,7.759,7.759,0,0,1,2.48,1.2l7.12,7s2-2.65,1.81-3.25,2.41-1.08,2.41-1.08,3.49-1.08,4.81-1.45,2.54,1.08,2.64,1.2a14.089,14.089,0,0,1-.6-5.29,6,6,0,0,0-1.44-4.33C750.09,572.3,759.6,581,759.6,581s1.08,5.65.12,7.82,1,6.74.72,7.94.48,3.25.48,5.53a32.9,32.9,0,0,1-1.92,8.55c-.73,1.92-6.5,6.25-6.5,6.25s-.36,6.86-2.89,10.83-1,17.57-1,17.57,2.4,10.59,5.41,14S761.52,682,761.52,682Z" transform="translate(-51.77 -49.02)"/>
      <path id="Path_120" data-name="Path 120" class="cls-9" d="M697.15,602.87s-1.32-4-2.53-4.34a28.486,28.486,0,0,1-3.49-1.56l.78-1.48s4.52,1.24,5.24,2.56S697.15,602.87,697.15,602.87Z" transform="translate(-51.77 -49.02)"/>
      <path id="Path_121" data-name="Path 121" class="cls-9" d="M673,594.08c-.24,1.21-10.94,2.29-10.94,2.29l5.41-5.43h0l.14.05h0a21.341,21.341,0,0,1,5.39,3.09Z" transform="translate(-51.77 -49.02)"/>
      <circle id="Ellipse_10" data-name="Ellipse 10" class="cls-27" cx="0.96" cy="0.96" r="0.96" transform="translate(589.25 527.59)"/>
      <circle id="Ellipse_11" data-name="Ellipse 11" class="cls-27" cx="0.96" cy="0.96" r="0.96" transform="translate(590.48 529.52)"/>
      <circle id="Ellipse_12" data-name="Ellipse 12" class="cls-27" cx="0.96" cy="0.96" r="0.96" transform="translate(591.69 531.29)"/>
      <circle id="Ellipse_13" data-name="Ellipse 13" class="cls-27" cx="0.96" cy="0.96" r="0.96" transform="translate(592.95 533.22)"/>
      <circle id="Ellipse_14" data-name="Ellipse 14" class="cls-27" cx="0.78" cy="0.78" r="0.78" transform="translate(706.55 533.29)"/>
      <circle id="Ellipse_15" data-name="Ellipse 15" class="cls-27" cx="0.78" cy="0.78" r="0.78" transform="translate(706.67 535.07)"/>
      <circle id="Ellipse_16" data-name="Ellipse 16" class="cls-27" cx="0.78" cy="0.78" r="0.78" transform="translate(706.77 536.84)"/>
      <path id="Path_122" data-name="Path 122" class="cls-9" d="M697.21,635.47c-.11-.14,27,34.11,48.07,14.32C745.28,649.79,712,654.3,697.21,635.47Z" transform="translate(-51.77 -49.02)"/>
      <path id="Path_123" data-name="Path 123" class="cls-9" d="M681.63,653.28s16.23.44,17.93,5.11v4.86a3.11,3.11,0,0,1-3,0c-1.64-.88-11.45-5.87-14.91-3.47Z" transform="translate(-51.77 -49.02)"/>
      <path id="Path_124" data-name="Path 124" class="cls-21" d="M681.93,653.28s15.52.42,17.15,4.87v4.64a3,3,0,0,1-2.89,0c-1.57-.85-11-5.6-14.26-3.31Z" transform="translate(-51.77 -49.02)"/>
      <path id="Path_125" data-name="Path 125" class="cls-9" d="M690.49,618a52.278,52.278,0,0,0,6.29,10.79,42.148,42.148,0,0,0,9.86,9.52S690.76,620.27,690.49,618Z" transform="translate(-51.77 -49.02)"/>
      <path id="Path_126" data-name="Path 126" class="cls-9" d="M685.18,599.18s2.71,11.69,9.68,15.66Z" transform="translate(-51.77 -49.02)"/>
      <path id="Path_127" data-name="Path 127" class="cls-9" d="M681,600.36c-.07-.22-2.41,9.24,9,14.48C690,614.84,685.18,613.2,681,600.36Z" transform="translate(-51.77 -49.02)"/>
      <path id="Path_128" data-name="Path 128" class="cls-9" d="M751.9,592.52c-.18,0,5.62,3.7,7.2,5.41C759.1,597.93,755.33,592.28,751.9,592.52Z" transform="translate(-51.77 -49.02)"/>
      <path id="Path_129" data-name="Path 129" class="cls-23" d="M715.18,584.44a3.05,3.05,0,0,0,1.11,1.94,3.129,3.129,0,0,0,1.35.3c4.37.27,8.91.46,13-1.22a4.84,4.84,0,0,0,2-1.31A7.79,7.79,0,0,0,733.7,581c.57-2.14,1.78-4,2.65-6.08A20.431,20.431,0,0,0,737.76,564a7.309,7.309,0,0,0-1.09-3.2c-1.16-1.65-3.27-2.32-4.8-3.64s-2.52-3.33-4.3-4.32a8.36,8.36,0,0,0-5.4-.48,28.531,28.531,0,0,0-10.08,3.79c-1,.64-2.18,1.37-3.37,1.15a4.63,4.63,0,0,1-2.48-1.9,13.319,13.319,0,0,0-1.07,6.23,1.844,1.844,0,0,1-.67,1.94c-1.08,1.25-1.75,3.23-.69,4.49.47.55,1.18.85,1.63,1.41.81,1,.53,2.45.51,3.74a2,2,0,0,0,.32,1.27,1.86,1.86,0,0,0,1.77.42,4.84,4.84,0,0,1,1.88-.18,3.17,3.17,0,0,1,1.64,1.26C713.54,578.54,714.33,581.35,715.18,584.44Z" transform="translate(-51.77 -49.02)"/>
      <g id="Group_4" data-name="Group 4" class="cls-28">
        <path id="Path_130" data-name="Path 130" d="M733,583.05a4.73,4.73,0,0,1-2,1.3c-4,1.69-8.58,1.49-12.94,1.22a2.94,2.94,0,0,1-1.35-.3,3,3,0,0,1-1.12-1.93c-.85-3.09-1.63-5.91-3.65-8.47a3.12,3.12,0,0,0-1.64-1.26,4.84,4.84,0,0,0-1.88.18,1.86,1.86,0,0,1-1.77-.42,1.94,1.94,0,0,1-.31-1.27c0-1.29.29-2.74-.52-3.74-.45-.56-1.16-.86-1.63-1.41a2.82,2.82,0,0,1-.27-2.88c-.77,1.22-1.1,2.78-.21,3.84.47.55,1.18.85,1.63,1.41.81,1,.53,2.45.51,3.74a2,2,0,0,0,.32,1.27,1.85,1.85,0,0,0,1.77.42,4.838,4.838,0,0,1,1.88-.18,3.17,3.17,0,0,1,1.64,1.26c2,2.57,2.8,5.38,3.65,8.47a3.05,3.05,0,0,0,1.11,1.94,3.129,3.129,0,0,0,1.35.3c4.37.27,8.91.46,13-1.22a4.909,4.909,0,0,0,2-1.31,3.808,3.808,0,0,0,.62-1.16A.72.72,0,0,1,733,583.05Z" transform="translate(-51.77 -49.02)"/>
      </g>
      <path id="Path_131" data-name="Path 131" class="cls-9" d="M712.62,593.12s17.89,2.37,19.5-.32" transform="translate(-51.77 -49.02)"/>
      <path id="Path_132" data-name="Path 132" class="cls-9" d="M747.4,585.72s9.93,0,12.12,3.74" transform="translate(-51.77 -49.02)"/>
    </g>
  </g>
</svg>
