<svg xmlns="http://www.w3.org/2000/svg" viewBox="0 0 32 32"><defs><style>.cls-1{fill:#286efa;}</style></defs><title>Asset 1</title><g id="Layer_2" data-name="Layer 2"><g id="Layer_1-2" data-name="Layer 1"><path class="cls-1" d="M31.62,10.22h0L27,6.52V1a1,1,0,0,0-1-1H6A1,1,0,0,0,5,1V6.52L.38,10.22h0A1,1,0,0,0,0,11V31a1,1,0,0,0,1,1H31a1,1,0,0,0,1-1V11A1,1,0,0,0,31.62,10.22ZM25,2V12h2V9.08L29.4,11,16,21.72l-9-7.2V2ZM5,12.92,2.6,11,5,9.08ZM30,30H2V13L15.38,23.78a1,1,0,0,0,1.25,0L30,13.08Z"/><path class="cls-1" d="M16,15c.54,0,1.45,0,4.89-6.54l-1.77-.93A43,43,0,0,1,16,12.72a12.71,12.71,0,0,1-1.07-2.09l-1.86.75C14.53,15,15.6,15,16,15Z"/></g></g></svg>