<svg xmlns="http://www.w3.org/2000/svg" viewBox="0 0 1598 475">
  <defs>
    <style>
      .cls-1 {
        fill: #e9ca59;
      }

      .cls-2 {
        fill: #2ca7c1;
      }

      .cls-3, .cls-6 {
        fill: #fff;
      }

      .cls-3 {
        opacity: 0.2;
      }

      .cls-4, .cls-8 {
        opacity: 0.1;
      }

      .cls-5 {
        fill: #e36fa5;
      }

      .cls-7 {
        fill: #4a4d58;
      }

      .cls-9 {
        fill: #010101;
        font-size: 300px;
        font-family: Poppins-Medium, Poppins;
        font-weight: 500;
      }
    </style>
  </defs>
  <g id="Group_5" data-name="Group 5" transform="translate(-44 -312)">
    <g id="toucan" transform="translate(44 284.142)">
      <path id="Path_1" data-name="Path 1" class="cls-1" d="M289.917,428.106v26.23a29.807,29.807,0,0,1-29.806,29.807h0A29.807,29.807,0,0,1,230.3,454.336v-26.23A29.806,29.806,0,0,1,260.111,398.3h0A29.805,29.805,0,0,1,289.917,428.106Z"/>
      <path id="Path_2" data-name="Path 2" class="cls-2" d="M343.754,443.406a31.258,31.258,0,0,0,48.8-5.761A161.725,161.725,0,0,0,368.55,239.581l-28.892-28.892c-31.412-31.412-82.582-32.608-114.4-1.606a80.83,80.83,0,0,0-.764,115.065Z"/>
      <path id="Path_3" data-name="Path 3" class="cls-3" d="M343.754,443.406a31.258,31.258,0,0,0,48.8-5.761A161.725,161.725,0,0,0,368.55,239.581l-28.892-28.892c-31.412-31.412-82.582-32.608-114.4-1.606a80.83,80.83,0,0,0-.764,115.065Z"/>
      <path id="Path_4" data-name="Path 4" class="cls-4" d="M367.084,404.735a7.477,7.477,0,0,1-5.3-2.2l-26.29-26.29A7.5,7.5,0,1,1,346.1,365.642l26.29,26.29a7.5,7.5,0,0,1-5.3,12.8Z"/>
      <path id="Path_5" data-name="Path 5" class="cls-1" d="M496.123,194.56H232.313V49.728H383.045A128.955,128.955,0,0,1,512,178.683h0A15.877,15.877,0,0,1,496.123,194.56Z"/>
      <path id="Path_6" data-name="Path 6" class="cls-5" d="M390.6,49.953c2.754,46.492,12.4,103.158,34.627,144.607h70.9A15.877,15.877,0,0,0,512,178.683h0A128.957,128.957,0,0,0,390.6,49.953Z"/>
      <path id="Path_7" data-name="Path 7" class="cls-4" d="M289.932,49.727H232.313V194.56H463.567C387.925,174.111,311.847,95.136,289.932,49.727Z"/>
      <path id="Path_8" data-name="Path 8" class="cls-2" d="M230.171,27.861A109.14,109.14,0,0,0,120.2,137V389.382L15.885,411.914A20.137,20.137,0,0,0,0,431.6H0a20.137,20.137,0,0,0,20.137,20.137h161.6v0a61.93,61.93,0,0,0,25.075-5.172A218.336,218.336,0,0,0,338.484,246.137V138.367C338.484,78.188,290.349,28.307,230.171,27.861Z"/>
      <path id="Path_9" data-name="Path 9" class="cls-6" d="M327.818,90.812c-32.775-21.719-88.43-27.579-121.53,16.053-39.7,52.337-7.982,223.1,43.066,315.253a217.965,217.965,0,0,0,89.129-175.98V138.368A110.9,110.9,0,0,0,327.818,90.812Z"/>
      <path id="Path_10" data-name="Path 10" class="cls-4" d="M225.474,27.933A109.137,109.137,0,0,0,120.2,137V389.382L15.885,411.914A20.137,20.137,0,0,0,0,431.6H0a20.137,20.137,0,0,0,20.137,20.137h161.6v0a61.93,61.93,0,0,0,25.075-5.172,218.951,218.951,0,0,0,81.75-61.5C207.406,363.03,158.33,96.519,225.474,27.933Z"/>
      <path id="Path_11" data-name="Path 11" class="cls-1" d="M200.252,428.106v26.23a29.807,29.807,0,0,1-29.806,29.807h0a29.807,29.807,0,0,1-29.807-29.807v-26.23A29.806,29.806,0,0,1,170.446,398.3h0A29.806,29.806,0,0,1,200.252,428.106Z"/>
      <path id="Path_12" data-name="Path 12" class="cls-2" d="M70.652,418.2a31.258,31.258,0,0,0,38.582,30.435A161.727,161.727,0,0,0,232.312,291.6V250.746c0-44.423-35.337-81.452-79.757-82.028a80.83,80.83,0,0,0-81.9,80.823S70.652,418.2,70.652,418.2Z"/>
      <path id="Path_13" data-name="Path 13" class="cls-3" d="M70.652,418.2a31.258,31.258,0,0,0,38.582,30.435A161.727,161.727,0,0,0,232.312,291.6V250.746c0-44.423-35.337-81.452-79.757-82.028a80.83,80.83,0,0,0-81.9,80.823S70.652,418.2,70.652,418.2Z"/>
      <path id="Path_14" data-name="Path 14" class="cls-7" d="M283.813,147.09a7.5,7.5,0,0,1-7.5-7.5,9.946,9.946,0,1,0-19.891,0,7.5,7.5,0,1,1-15,0,24.946,24.946,0,1,1,49.891,0A7.5,7.5,0,0,1,283.813,147.09Z"/>
      <g id="Group_1" data-name="Group 1" class="cls-8">
        <path id="Path_15" data-name="Path 15" d="M121.906,388.092a7.5,7.5,0,0,1-7.5-7.5V332.826a7.5,7.5,0,0,1,15,0v47.766A7.5,7.5,0,0,1,121.906,388.092Z"/>
        <path id="Path_16" data-name="Path 16" d="M181.738,340.326a7.5,7.5,0,0,1-7.5-7.5v-37.18a7.5,7.5,0,0,1,15,0v37.18A7.5,7.5,0,0,1,181.738,340.326Z"/>
      </g>
    </g>
    <text id="toucan-2" data-name="toucan" class="cls-9" transform="translate(556 682)"><tspan x="0" y="0">toucan</tspan></text>
  </g>
</svg>
