<?xml version="1.0" encoding="iso-8859-1"?>
<!-- Generator: Adobe Illustrator 19.0.0, SVG Export Plug-In . SVG Version: 6.00 Build 0)  -->
<svg version="1.1" id="Capa_1" xmlns="http://www.w3.org/2000/svg" xmlns:xlink="http://www.w3.org/1999/xlink" x="0px" y="0px"
	 viewBox="0 0 512 512" style="enable-background:new 0 0 512 512;" xml:space="preserve">
<path style="fill:#E9CA59;" d="M289.917,428.106v26.23c0,16.462-13.345,29.807-29.806,29.807l0,0
	c-16.462,0-29.807-13.345-29.807-29.807v-26.23c0-16.462,13.345-29.806,29.807-29.806l0,0
	C276.573,398.3,289.917,411.644,289.917,428.106z"/>
<path style="fill:#2CA7C1;" d="M343.754,443.406c14.304,14.304,38.311,11.534,48.802-5.761
	c37.726-62.193,29.724-144.334-24.006-198.064l-28.892-28.892c-31.412-31.412-82.582-32.608-114.399-1.606
	c-32.328,31.5-32.583,83.246-0.764,115.065L343.754,443.406z"/>
<path style="opacity:0.2;fill:#FFFFFF;enable-background:new    ;" d="M343.754,443.406c14.304,14.304,38.311,11.534,48.802-5.761
	c37.726-62.193,29.724-144.334-24.006-198.064l-28.892-28.892c-31.412-31.412-82.582-32.608-114.399-1.606
	c-32.328,31.5-32.583,83.246-0.764,115.065L343.754,443.406z"/>
<path style="opacity:0.1;enable-background:new    ;" d="M367.084,404.735c-1.919,0-3.839-0.732-5.303-2.196l-26.29-26.29
	c-2.929-2.93-2.929-7.678,0-10.607c2.929-2.928,7.678-2.928,10.606,0l26.29,26.29c2.929,2.93,2.929,7.678,0,10.608
	C370.923,404.003,369.003,404.735,367.084,404.735z"/>
<path style="fill:#E9CA59;" d="M496.123,194.56h-263.81V49.728h150.732c71.22,0,128.955,57.735,128.955,128.955l0,0
	C512,187.452,504.891,194.56,496.123,194.56z"/>
<path style="fill:#E36FA5;" d="M390.598,49.953c2.754,46.492,12.396,103.158,34.627,144.607h70.898
	c8.769,0,15.877-7.109,15.877-15.877l0,0C512,109.999,458.301,53.865,390.598,49.953z"/>
<path style="opacity:0.1;enable-background:new    ;" d="M289.932,49.727h-57.619V194.56h231.254
	C387.925,174.111,311.847,95.136,289.932,49.727z"/>
<path style="fill:#2CA7C1;" d="M230.171,27.861c-60.656-0.45-109.968,48.585-109.968,109.137v252.384L15.885,411.914
	C6.616,413.916,0,422.114,0,431.597l0,0c0,11.121,9.016,20.137,20.137,20.137h161.601v-0.002c8.274,0.053,16.772-1.579,25.075-5.172
	c77.467-33.522,131.671-110.642,131.671-200.423v-107.77C338.484,78.188,290.349,28.307,230.171,27.861z"/>
<path style="fill:#FFFFFF;" d="M327.818,90.812c-32.775-21.719-88.43-27.579-121.53,16.053
	c-39.704,52.337-7.982,223.097,43.066,315.253c54.047-39.732,89.129-103.756,89.129-175.98v-107.77
	C338.484,121.405,334.659,105.262,327.818,90.812z"/>
<path style="opacity:0.1;enable-background:new    ;" d="M225.474,27.933c-58.484,2.039-105.271,50.084-105.271,109.065v252.384
	L15.885,411.914C6.616,413.916,0,422.114,0,431.597l0,0c0,11.121,9.016,20.137,20.137,20.137h161.601v-0.002
	c8.274,0.053,16.772-1.579,25.075-5.172c31.925-13.815,59.892-35.039,81.75-61.497C207.406,363.03,158.33,96.519,225.474,27.933z"/>
<path style="fill:#E9CA59;" d="M200.252,428.106v26.23c0,16.462-13.345,29.807-29.806,29.807l0,0
	c-16.462,0-29.807-13.345-29.807-29.807v-26.23c0-16.462,13.345-29.806,29.807-29.806l0,0
	C186.907,398.3,200.252,411.644,200.252,428.106z"/>
<path style="fill:#2CA7C1;" d="M70.652,418.197c0,20.229,18.934,35.246,38.582,30.435c70.653-17.301,123.078-81.042,123.078-157.027
	v-40.859c0-44.423-35.337-81.452-79.757-82.028c-45.133-0.586-81.903,35.825-81.903,80.823
	C70.652,249.54,70.652,418.197,70.652,418.197z"/>
<path style="opacity:0.2;fill:#FFFFFF;enable-background:new    ;" d="M70.652,418.197c0,20.229,18.934,35.246,38.582,30.435
	c70.653-17.301,123.078-81.042,123.078-157.027v-40.859c0-44.423-35.337-81.452-79.757-82.028
	c-45.133-0.586-81.903,35.825-81.903,80.823C70.652,249.54,70.652,418.197,70.652,418.197z"/>
<path style="fill:#4A4D58;" d="M283.813,147.09c-4.142,0-7.5-3.357-7.5-7.5c0-5.484-4.461-9.946-9.945-9.946
	s-9.946,4.462-9.946,9.946c0,4.143-3.358,7.5-7.5,7.5s-7.5-3.357-7.5-7.5c0-13.756,11.19-24.946,24.946-24.946
	c13.755,0,24.945,11.19,24.945,24.946C291.313,143.732,287.955,147.09,283.813,147.09z"/>
<g style="opacity:0.1;">
	<path d="M121.906,388.092c-4.142,0-7.5-3.357-7.5-7.5v-47.766c0-4.143,3.358-7.5,7.5-7.5s7.5,3.357,7.5,7.5v47.766
		C129.406,384.734,126.048,388.092,121.906,388.092z"/>
	<path d="M181.738,340.326c-4.142,0-7.5-3.357-7.5-7.5v-37.18c0-4.143,3.358-7.5,7.5-7.5s7.5,3.357,7.5,7.5v37.18
		C189.238,336.969,185.88,340.326,181.738,340.326z"/>
</g>
<g>
</g>
<g>
</g>
<g>
</g>
<g>
</g>
<g>
</g>
<g>
</g>
<g>
</g>
<g>
</g>
<g>
</g>
<g>
</g>
<g>
</g>
<g>
</g>
<g>
</g>
<g>
</g>
<g>
</g>
</svg>
